<svg xmlns="http://www.w3.org/2000/svg" viewBox="0 0 20.25 22">
  <defs>
    <style>
      .cls-1 {
        fill: #2e303d;
      }
    </style>
  </defs>
  <g id="if_gear-01_186403" transform="translate(-2.424 -1.25)">
    <g id="그룹_1" data-name="그룹 1" transform="translate(2.423 1.25)">
      <path id="패스_2" data-name="패스 2" class="cls-1" d="M22.3,15.267a2.112,2.112,0,0,1-.539-2.116v-.856c0-.9-.007-.934-.007-.934A2.138,2.138,0,0,1,22.288,9.2c.489-.28.512-1.169.051-1.977l-.5-.873c-.461-.809-1.245-1.239-1.741-.958a2.354,2.354,0,0,1-2.228-.539l-1.574-.9c-.86-.355-1.565-1.106-1.565-1.671S13.97,1.25,13.04,1.25h-.979c-.931,0-1.692.454-1.692,1.01S9.661,3.551,8.8,3.9L7.15,4.8a2.327,2.327,0,0,1-2.178.567c-.471-.268-1.233.173-1.7.981l-.5.873c-.462.808-.465,1.684-.006,1.946s.669,1.221.466,2.128c0,0-.017.078-.017,1v.883c.193.91-.016,1.864-.467,2.122s-.44,1.128.022,1.936l.5.874c.462.808,1.207,1.26,1.654,1.005a2.315,2.315,0,0,1,2.136.594l1.732.979c.863.348,1.57,1.067,1.57,1.6s.761.965,1.692.965h.979c.931,0,1.692-.441,1.692-.981s.7-1.273,1.562-1.632l1.66-.981a2.338,2.338,0,0,1,2.184-.567c.472.269,1.236-.172,1.7-.98l.5-.874C22.8,16.426,22.784,15.54,22.3,15.267ZM12.459,18.2a6,6,0,1,1,6-6A6,6,0,0,1,12.459,18.2Z" transform="translate(-2.423 -1.25)"/>
    </g>
    <g id="그룹_2" data-name="그룹 2" transform="translate(9.167 8.799)">
      <circle id="타원_1" data-name="타원 1" class="cls-1" cx="3.356" cy="3.356" r="3.356" transform="translate(0 0)"/>
    </g>
  </g>
</svg>
