<svg xmlns="http://www.w3.org/2000/svg" viewBox="0 0 14 14">
  <defs>
    <style>
      .cls-1 {
        fill: #2e303d;
      }
    </style>
  </defs>
  <g id="if_save_2639912" transform="translate(-4 -4)">
    <path id="패스_11" data-name="패스 11" class="cls-1" d="M15.455,4H14.182V7.818a.637.637,0,0,1-.636.636H7.818a.637.637,0,0,1-.636-.636V4H5.273A1.272,1.272,0,0,0,4,5.273V16.727A1.272,1.272,0,0,0,5.273,18H16.727A1.272,1.272,0,0,0,18,16.727V6.545Zm0,12.727H6.545V12.909a1.272,1.272,0,0,1,1.273-1.273h6.364a1.272,1.272,0,0,1,1.273,1.273Z"/>
    <rect id="사각형_23" data-name="사각형 23" class="cls-1" width="2" height="5" transform="translate(11.2 4)"/>
  </g>
</svg>
