<svg xmlns="http://www.w3.org/2000/svg" viewBox="0 0 12 12">
  <defs>
    <style>
      .cls-1 {
        fill: #2e303d;
      }
    </style>
  </defs>
  <g id="그룹_654" data-name="그룹 654" transform="translate(-262 -251)">
    <path id="패스_149" data-name="패스 149" class="cls-1" d="M8,2a6,6,0,1,0,6,6A6,6,0,0,0,8,2ZM7.069,3.8H8.933a.24.24,0,0,1,.239.267l-.546,4.92a.24.24,0,0,1-.239.213h-.77a.24.24,0,0,1-.239-.213l-.548-4.92A.24.24,0,0,1,7.069,3.8ZM8,12.8a1.2,1.2,0,1,1,1.2-1.2A1.2,1.2,0,0,1,8,12.8Z" transform="translate(260 249)"/>
  </g>
</svg>
