<svg xmlns="http://www.w3.org/2000/svg" viewBox="0 0 24.621 20.1">
  <defs>
    <style>
      .cls-1 {
        fill: #2e303d;
      }
    </style>
  </defs>
  <g id="그룹_661" data-name="그룹 661" transform="translate(18921 22941)">
    <g id="sign-out-option" transform="translate(-18921 -22982.115)">
      <g id="그룹_3" data-name="그룹 3" transform="translate(0 41.115)">
        <path id="패스_4" data-name="패스 4" class="cls-1" d="M10.05,59.707a.409.409,0,0,1-.032-.212c.011-.057-.026-.1-.11-.141s-.126-.066-.126-.086-.06-.037-.181-.047L9.422,59.2h-4.9a2.419,2.419,0,0,1-1.775-.738,2.419,2.419,0,0,1-.738-1.774V45.637a2.419,2.419,0,0,1,.738-1.774,2.42,2.42,0,0,1,1.775-.738H9.547a.474.474,0,0,0,.322-.1.521.521,0,0,0,.157-.306,2.642,2.642,0,0,0,.047-.369,3.907,3.907,0,0,0-.008-.416q-.016-.251-.016-.314a.509.509,0,0,0-.5-.5H4.522a4.356,4.356,0,0,0-3.2,1.327A4.356,4.356,0,0,0,0,45.637V56.692a4.355,4.355,0,0,0,1.327,3.2,4.355,4.355,0,0,0,3.2,1.327H9.547a.476.476,0,0,0,.322-.1.522.522,0,0,0,.157-.306,2.648,2.648,0,0,0,.047-.369,3.9,3.9,0,0,0-.008-.416Q10.05,59.77,10.05,59.707Z" transform="translate(0 -41.115)"/>
        <path id="패스_5" data-name="패스 5" class="cls-1" d="M127.927,59.087l-8.542-8.543a1.005,1.005,0,0,0-1.712.707v4.522h-7.035a1.019,1.019,0,0,0-1.005,1.005v6.03a1.019,1.019,0,0,0,1.005,1.005h7.035v4.522a1,1,0,0,0,1.712.707l8.542-8.542a.986.986,0,0,0,0-1.414Z" transform="translate(-103.603 -49.744)"/>
      </g>
    </g>
  </g>
</svg>
