<svg xmlns="http://www.w3.org/2000/svg" viewBox="0 0 16 17.621">
  <defs>
    <style>
      .cls-1 {
        fill: none;
      }

      .cls-2 {
        fill: #2e303d;
      }
    </style>
  </defs>
  <g id="그룹_660" data-name="그룹 660" transform="translate(0 0.004)">
    <path id="패스_199" data-name="패스 199" class="cls-1" d="M15.714,17.09A5.714,5.714,0,1,0,21.429,22.8a5.793,5.793,0,0,0-.754-2.857L15.714,22.8Z" transform="translate(-7.714 -13.186)"/>
    <path id="패스_200" data-name="패스 200" class="cls-2" d="M14.926,5.618,12.937,6.761a5.58,5.58,0,0,1,.777,2.857A5.714,5.714,0,1,1,7.657,3.9v1.3c0,.5.366.709.8.457l1.234-.709,1.577-.914L12.5,3.332a.484.484,0,0,0,0-.914l-1.234-.709L9.691.8,8.457.109c-.434-.251-.8-.069-.8.411v1.1a8,8,0,1,0,8.343,8A7.932,7.932,0,0,0,14.926,5.618Z" transform="translate(0 0)"/>
  </g>
</svg>
