<svg xmlns="http://www.w3.org/2000/svg" viewBox="0 0 15 13.881">
  <defs>
    <style>
      .cls-1 {
        fill: #2e303d;
      }
    </style>
  </defs>
  <g id="그룹_658" data-name="그룹 658" transform="translate(-1448.002 -446.502)">
    <g id="그룹_223" data-name="그룹 223" transform="translate(4.3)">
      <path id="sent-mail" class="cls-1" d="M14.923,12.514a.224.224,0,0,0-.242-.035L.129,19.24a.224.224,0,0,0,0,.4l4.118,2.021a.224.224,0,0,0,.233-.022l4-2.993L5.337,21.885a.224.224,0,0,0-.063.173l.313,4.076a.224.224,0,0,0,.393.129L8.166,23.73l2.7,1.291a.224.224,0,0,0,.311-.135l3.811-12.137A.224.224,0,0,0,14.923,12.514Z" transform="translate(1443.7 434.042)"/>
    </g>
  </g>
</svg>
