<svg id="사용자_아이콘" data-name="사용자 아이콘" xmlns="http://www.w3.org/2000/svg" viewBox="0 0 26 26">
  <defs>
    <style>
      .cls-1 {
        fill: none;
      }

      .cls-2 {
        fill: #2e303d;
      }
    </style>
  </defs>
  <rect id="사각형_4" data-name="사각형 4" class="cls-1" width="26" height="26"/>
  <path id="패스_1" data-name="패스 1" class="cls-2" d="M21.41,20.714a23.108,23.108,0,0,1-.054-2.442,4.714,4.714,0,0,0,1.36-2.836c.346-.027.891-.352,1.05-1.635a1.179,1.179,0,0,0-.464-1.2c.562-1.63,1.73-6.671-2.16-7.192-.4-.678-1.426-1.02-2.758-1.02-5.331.095-5.974,3.879-4.805,8.212a1.181,1.181,0,0,0-.464,1.2c.16,1.283.7,1.608,1.05,1.635a4.707,4.707,0,0,0,1.392,2.836,23.111,23.111,0,0,1-.055,2.442c-1.055,2.732-8.172,1.965-8.5,7.235H29.88C29.552,22.679,22.465,23.446,21.41,20.714Z" transform="translate(-5.18 -3.249)"/>
</svg>
