<svg xmlns="http://www.w3.org/2000/svg" viewBox="0 0 11.375 14">
  <defs>
    <style>
      .cls-1 {
        fill: #2e303d;
      }
    </style>
  </defs>
  <g id="삭제_이미지_버튼" data-name="삭제 이미지 버튼" transform="translate(-1698.6 -197)">
    <g id="그룹_112" data-name="그룹 112" transform="translate(-1)">
      <g id="recycling-bin" transform="translate(1628.984 197)">
        <g id="_x34__19_" transform="translate(70.616)">
          <g id="그룹_111" data-name="그룹 111" transform="translate(0)">
            <path id="패스_18" data-name="패스 18" class="cls-1" d="M78.491,12.25a.438.438,0,0,0,.437-.438V6.563a.437.437,0,1,0-.875,0v5.25A.438.438,0,0,0,78.491,12.25Zm2.625-10.5H78.491V.875A.875.875,0,0,0,77.616,0H74.991a.875.875,0,0,0-.875.875V1.75H71.491a.875.875,0,0,0-.875.875V3.5a.875.875,0,0,0,.875.875V12.25A1.75,1.75,0,0,0,73.241,14h6.125a1.75,1.75,0,0,0,1.75-1.75V4.375a.875.875,0,0,0,.875-.875V2.625A.875.875,0,0,0,81.116,1.75Zm-6.125-.438a.438.438,0,0,1,.437-.438h1.75a.438.438,0,0,1,.437.438V1.75H74.991Zm5.25,10.938a.875.875,0,0,1-.875.875H73.241a.875.875,0,0,1-.875-.875V4.375h7.875Zm.438-8.75h-8.75a.438.438,0,0,1,0-.875h8.75a.438.438,0,0,1,0,.875Zm-6.563,8.75a.438.438,0,0,0,.438-.438V6.563a.438.438,0,0,0-.875,0v5.25A.438.438,0,0,0,74.116,12.25Zm2.187,0a.438.438,0,0,0,.437-.438V6.563a.437.437,0,1,0-.875,0v5.25A.438.438,0,0,0,76.3,12.25Z" transform="translate(-70.616)"/>
          </g>
        </g>
      </g>
    </g>
  </g>
</svg>
