<?xml version="1.0" standalone="no"?>
<!DOCTYPE svg PUBLIC "-//W3C//DTD SVG 1.1//EN" "http://www.w3.org/Graphics/SVG/1.1/DTD/svg11.dtd" >
<svg xmlns="http://www.w3.org/2000/svg">
<metadata>Generated by IcoMoon</metadata>
<defs>
<font id="incon" horiz-adv-x="1024">
<font-face units-per-em="1024" ascent="960" descent="-64" />
<missing-glyph horiz-adv-x="1024" />
<glyph unicode="&#x20;" horiz-adv-x="512" d="" />
<glyph unicode="&#xe900;" glyph-name="backward-arrow" d="M170.667 425.244l534.756 534.756 159.289-159.289-375.467-375.467 375.467-375.467-159.289-159.289z" />
<glyph unicode="&#xe901;" glyph-name="cancle" d="M0.069 779.237l180.673 180.673 843.141-843.141-180.673-180.673-843.141 843.141zM180.742-63.904l-180.673 180.673 843.141 843.141 180.673-180.673-843.141-843.141z" />
<glyph unicode="&#xe902;" glyph-name="close" d="M63.987 895.851c35.339 35.339 92.635 35.339 127.974 0l767.844-767.844c35.339-35.339 35.339-92.635 0-127.974s-92.635-35.339-127.974 0l-767.844 767.844c-35.339 35.339-35.339 92.635 0 127.974zM63.968 0.168c-35.339 35.339-35.339 92.635 0 127.974l767.844 767.844c35.339 35.339 92.635 35.339 127.974 0s35.339-92.635 0-127.974l-767.844-767.844c-35.339-35.339-92.635-35.339-127.974 0z" />
<glyph unicode="&#xe903;" glyph-name="down-arrow" d="M534.756 95.289l-534.756 534.756 159.289 159.289 375.467-375.467 375.467 375.467 159.289-159.289z" />
<glyph unicode="&#xe904;" glyph-name="forward-arrow" d="M864.711 425.244l-534.756-534.756-159.289 159.289 375.467 375.467-375.467 375.467 159.289 159.289z" />
<glyph unicode="&#xe905;" glyph-name="gear" d="M971.683 307.572c-18.093 17.838-29.302 42.619-29.302 70.017 0 10.157 1.54 19.953 4.4 29.17l-0.186-0.696v39.843c0 41.891-0.326 43.473-0.326 43.473-2.918 8.94-4.601 19.228-4.601 29.91 0 27.634 11.263 52.636 29.449 70.668l0.007 0.007c22.761 13.033 23.831 54.412 2.374 92.020l-23.273 40.634c-21.457 37.655-57.949 57.67-81.036 44.591-8.797-2.542-18.902-4.004-29.348-4.004-28.734 0-54.885 11.061-74.427 29.157l0.072-0.065-73.263 41.891c-40.029 16.524-72.844 51.479-72.844 77.777s-35.421 48.035-78.708 48.035h-45.568c-43.334 0-78.755-21.132-78.755-47.011s-32.954-60.090-73.030-76.335l-76.8-41.891c-19.38-18.426-45.652-29.76-74.572-29.76-9.523 0-18.759 1.229-27.558 3.537l0.754-0.168c-21.923 12.474-57.391-8.052-79.127-45.661l-23.273-40.634c-21.504-37.609-21.644-78.383-0.279-90.577s31.139-56.832 21.69-99.049c0 0-0.791-3.631-0.791-46.545v-41.1c8.983-42.356-0.745-86.761-21.737-98.769s-20.48-52.503 1.024-90.112l23.273-40.681c21.504-37.609 56.18-58.647 76.986-46.778 7.32 1.774 15.724 2.791 24.366 2.791 29.194 0 55.676-11.61 75.081-30.464l-0.026 0.025 80.617-45.568c40.169-16.198 73.076-49.664 73.076-74.473s35.421-44.916 78.755-44.916h45.568c43.334 0 78.755 20.527 78.755 45.661s32.582 59.252 72.704 75.962l77.265 45.661c19.454 18.43 45.793 29.762 74.779 29.762 9.548 0 18.81-1.23 27.634-3.54l-0.758 0.168c21.969-12.521 57.53 8.006 79.127 45.615l23.273 40.681c21.83 37.795 21.085 79.034-1.443 91.741zM513.629 171.055c-154.238 0-279.273 125.035-279.273 279.273s125.035 279.273 279.273 279.273c154.238 0 279.273-125.035 279.273-279.273v0c0-154.238-125.035-279.273-279.273-279.273v0zM672.815 452.422c0-86.27-69.936-156.207-156.207-156.207s-156.207 69.936-156.207 156.207c0 86.27 69.936 156.207 156.207 156.207s156.207-69.936 156.207-156.207z" />
<glyph unicode="&#xe906;" glyph-name="save" d="M837.851 960h-93.111v-279.259c-0.042-25.675-20.844-46.477-46.515-46.519h-418.966c-25.675 0.042-46.477 20.844-46.519 46.515v279.263h-139.63c-0.022 0-0.047 0-0.073 0-51.383 0-93.038-41.654-93.038-93.038 0-0.026 0-0.051 0-0.077v0.004-837.778c0-0.022 0-0.047 0-0.073 0-51.383 41.654-93.038 93.038-93.038 0.026 0 0.051 0 0.077 0h837.774c0.022 0 0.047 0 0.073 0 51.383 0 93.038 41.654 93.038 93.038 0 0.026 0 0.051 0 0.077v-0.004 744.741zM837.851 29.111h-651.703v279.259c0 0.022 0 0.047 0 0.073 0 51.383 41.654 93.038 93.038 93.038 0.026 0 0.051 0 0.077 0h465.477c0.022 0 0.047 0 0.073 0 51.383 0 93.038-41.654 93.038-93.038 0-0.026 0-0.051 0-0.077v0.004zM526.629 960h146.286v-365.714h-146.286v365.714z" />
<glyph unicode="&#xe907;" glyph-name="play" d="M924.16 478.354l-751.47 465.554c-54.711 35.913-99.547 9.509-99.547-58.734v-903.68c0-68.169 44.837-94.647 99.547-58.514l751.47 465.335c14.54 10.372 24.491 26.371 26.668 44.753l0.029 0.303c-2.227 18.657-12.173 34.627-26.502 44.85l-0.196 0.133z" />
<glyph unicode="&#xe908;" glyph-name="plus" d="M402.286 960h219.429v-1024h-219.429v1024zM0 338.286v219.429h1024v-219.429h-1024z" />
<glyph unicode="&#xe909;" glyph-name="search" d="M1017.6 32l-211.2 211.2c55.918 72.813 89.612 165.237 89.612 265.532 0 1.149-0.004 2.297-0.013 3.444l0.001-0.176c0.005 0.82 0.009 1.79 0.009 2.761 0 245.904-199.344 445.248-445.248 445.248-0.971 0-1.941-0.003-2.91-0.009l0.15 0.001c-0.82 0.005-1.79 0.009-2.761 0.009-245.904 0-445.248-199.344-445.248-445.248 0-0.971 0.003-1.941 0.009-2.91l-0.001 0.15c-0.005-0.82-0.009-1.79-0.009-2.761 0-245.904 199.344-445.248 445.248-445.248 0.971 0 1.941 0.003 2.91 0.009l-0.15-0.001c0.971-0.008 2.119-0.012 3.268-0.012 100.294 0 192.719 33.694 266.573 90.379l-1.041-0.767 211.2-211.2zM128 512c-0.010 0.937-0.016 2.044-0.016 3.152 0 174.999 141.865 316.864 316.864 316.864 1.108 0 2.215-0.006 3.32-0.017l-0.169 0.001c0.937 0.010 2.044 0.016 3.152 0.016 174.999 0 316.864-141.865 316.864-316.864 0-1.108-0.006-2.215-0.017-3.32l0.001 0.169c0.010-0.937 0.016-2.044 0.016-3.152 0-174.999-141.865-316.864-316.864-316.864-1.108 0-2.215 0.006-3.32 0.017l0.169-0.001c-0.937-0.010-2.044-0.016-3.152-0.016-174.999 0-316.864 141.865-316.864 316.864 0 1.108 0.006 2.215 0.017 3.32l-0.001-0.169z" />
<glyph unicode="&#xe90a;" glyph-name="up-arrow" d="M534.756 789.333l534.756-534.756-159.289-159.289-375.467 375.467-375.467-375.467-159.289 159.289z" />
<glyph unicode="&#xe90b;" glyph-name="warning" d="M512 960c-282.77 0-512-229.23-512-512s229.23-512 512-512c282.77 0 512 229.23 512 512v0c0 282.77-229.23 512-512 512v0zM432.555 806.4h159.061c0.013 0 0.029 0 0.045 0 11.311 0 20.48-9.169 20.48-20.48 0-0.812-0.047-1.613-0.139-2.4l0.009 0.096-46.592-419.84c-1.197-10.276-9.851-18.176-20.35-18.176-0.016 0-0.031 0-0.047 0h-65.705c-0.013 0-0.029 0-0.045 0-10.499 0-19.153 7.9-20.341 18.080l-0.009 0.096-46.763 419.84c-0.083 0.691-0.13 1.492-0.13 2.304 0 11.311 9.169 20.48 20.48 20.48 0.016 0 0.031 0 0.047 0h-0.002zM512 38.4c-56.554 0-102.4 45.846-102.4 102.4s45.846 102.4 102.4 102.4c56.554 0 102.4-45.846 102.4-102.4v0c0-56.554-45.846-102.4-102.4-102.4v0z" />
<glyph unicode="&#xe90c;" glyph-name="pause" d="M186.182 960h279.273v-1024h-279.273v1024zM558.545 960h279.273v-1024h-279.273v1024z" />
<glyph unicode="&#xe90d;" glyph-name="check" d="M1019.767 738.133l-634.88-677.205c-2.514-2.841-6.169-4.623-10.24-4.623s-7.726 1.782-10.227 4.608l-0.013 0.014-360.243 384.546c-2.599 2.832-4.191 6.623-4.191 10.786s1.593 7.955 4.202 10.798l-0.011-0.012 87.586 93.116c2.514 2.841 6.169 4.623 10.24 4.623s7.726-1.782 10.227-4.608l0.013-0.014 262.554-279.893 537.19 573.030c2.514 2.841 6.169 4.623 10.24 4.623s7.726-1.782 10.227-4.608l0.013-0.014 87.586-93.457c2.555-2.821 4.119-6.581 4.119-10.707 0-4.267-1.673-8.143-4.399-11.009l0.006 0.007z" />
<glyph unicode="&#xe90e;" glyph-name="send" d="M1018.607 922.18c-2.679 2.363-6.218 3.805-10.094 3.805-2.332 0-4.542-0.522-6.519-1.455l0.093 0.040-993.417-461.551c-5.026-2.575-8.405-7.72-8.405-13.653s3.38-11.078 8.319-13.613l0.086-0.040 281.122-137.967c1.964-0.984 4.278-1.559 6.727-1.559 3.461 0 6.654 1.15 9.217 3.089l-0.038-0.028 273.067 204.322-214.562-221.116c-2.686-2.753-4.343-6.521-4.343-10.675 0-0.399 0.015-0.795 0.045-1.187l-0.003 0.052 21.367-278.255c0.63-7.923 7.215-14.114 15.246-14.114 4.62 0 8.762 2.049 11.566 5.288l0.016 0.019 149.231 172.919 184.32-88.132c1.94-0.956 4.222-1.515 6.635-1.515 6.817 0 12.592 4.461 14.566 10.622l0.030 0.108 260.164 828.553c0.45 1.375 0.709 2.958 0.709 4.601 0 4.545-1.983 8.627-5.131 11.428l-0.015 0.013z" />
<glyph unicode="&#xe90f;" glyph-name="refresh" d="M906.012 640.171l-113.152-65.024c27.775-46.211 44.204-101.98 44.204-161.587 0-0.332-0.001-0.664-0.002-0.996v0.051c-0.463-179.177-145.821-324.249-325.062-324.249-179.527 0-325.063 145.536-325.063 325.063 0 172.662 134.618 313.883 304.623 324.431l0.926 0.046v-73.956c0-28.444 20.821-40.334 45.511-25.998l70.201 40.334 89.714 51.996 70.087 39.936c10.844 3.863 18.466 14.040 18.466 25.998s-7.623 22.135-18.274 25.938l-0.192 0.060-70.201 40.334-89.6 51.712-70.201 39.31c-24.69 14.279-45.511 3.925-45.511-23.381v-62.578c-242.813-10.744-435.598-210.204-435.598-454.693 0-251.351 203.76-455.111 455.111-455.111 251.204 0 454.872 203.522 455.111 454.67v0.023c0.001 0.278 0.001 0.607 0.001 0.935 0 83.524-22.693 161.747-62.249 228.842l1.149-2.107z" />
<glyph unicode="&#xe910;" glyph-name="logout" d="M411.648 96.072c-0.899 1.988-1.422 4.31-1.422 6.755 0 0.68 0.040 1.35 0.119 2.008l-0.008-0.080c0.451 2.335-1.065 4.096-4.506 5.775s-5.161 2.703-5.161 3.523-2.458 1.516-7.414 1.925l-7.332 0.86h-200.704c-0.43-0.007-0.937-0.011-1.445-0.011-27.962 0-53.218 11.582-71.233 30.211l-0.027 0.028c-18.656 18.042-30.238 43.298-30.238 71.259 0 0.494 0.004 0.987 0.011 1.479l-0.001-0.075v452.649c-0.006 0.418-0.010 0.911-0.010 1.404 0 27.961 11.582 53.217 30.211 71.232l0.028 0.026c18.048 18.657 43.31 30.239 71.277 30.239 0.502 0 1.003-0.004 1.503-0.011l-0.076 0.001h205.824c0.363-0.024 0.786-0.038 1.213-0.038 4.538 0 8.712 1.557 12.017 4.165l-0.041-0.031c3.396 3.235 5.724 7.564 6.417 12.42l0.013 0.114c0.919 4.356 1.605 9.538 1.912 14.823l0.014 0.291c0.059 1.624 0.093 3.532 0.093 5.447 0 4.079-0.153 8.123-0.453 12.126l0.032-0.533q-0.655 10.281-0.655 12.861c-0.203 11.228-9.252 20.277-20.461 20.48h-205.925c-0.841 0.014-1.832 0.022-2.826 0.022-50.314 0-95.764-20.826-128.2-54.328l-0.046-0.048c-33.426-32.464-54.168-77.832-54.168-128.045 0-0.92 0.007-1.839 0.021-2.756l-0.002 0.139v-452.813c-0.014-0.846-0.023-1.843-0.023-2.843 0-50.309 20.827-95.754 54.328-128.182l0.048-0.046c32.475-33.55 77.92-54.377 128.229-54.377 1 0 1.997 0.008 2.993 0.025l-0.15-0.002h205.619c0.355-0.023 0.769-0.036 1.187-0.036 4.546 0 8.728 1.556 12.044 4.164l-0.042-0.032c3.394 3.237 5.721 7.565 6.417 12.419l0.013 0.114c0.918 4.355 1.604 9.537 1.911 14.821l0.014 0.293c0.059 1.626 0.093 3.535 0.093 5.453 0 4.077-0.153 8.119-0.453 12.12l0.032-0.533q-0.614 10.568-0.614 13.148zM996.311 474.911l-349.88 349.921c-7.434 7.361-17.666 11.91-28.96 11.91-22.63 0-40.996-18.261-41.164-40.852v-185.237h-288.154c-22.606-0.318-40.847-18.559-41.164-41.135v-247.019c0.318-22.606 18.559-40.847 41.135-41.164h288.184v-185.221c0-0.059 0-0.128 0-0.198 0-22.622 18.338-40.96 40.96-40.96 11.411 0 21.732 4.666 29.159 12.195l349.885 349.885c7.551 7.346 12.236 17.605 12.236 28.959s-4.685 21.612-12.227 28.95l-0.009 0.009z" />
<glyph unicode="&#xe911;" glyph-name="admin" d="M639.212 272.148c-1.629 20.408-2.557 44.186-2.557 68.181 0 9.845 0.156 19.653 0.467 29.423l-0.036-1.426c29.158 29.052 48.71 67.728 53.488 110.858l0.075 0.836c13.627 1.063 35.092 13.863 41.354 64.394 0.637 2.885 1.003 6.198 1.003 9.597 0 15.446-7.542 29.131-19.144 37.572l-0.133 0.092c22.134 64.197 68.135 262.735-85.071 283.254-15.754 26.703-56.162 40.172-108.623 40.172-209.959-3.742-235.284-152.773-189.243-323.426-11.731-8.55-19.268-22.244-19.268-37.699 0-3.386 0.362-6.688 1.049-9.869l-0.055 0.306c6.302-50.53 27.569-63.33 41.354-64.394 5.19-44.113 25.178-82.795 54.784-111.657l0.039-0.038c0.267-8.231 0.419-17.909 0.419-27.622 0-24.127-0.939-48.034-2.782-71.688l0.196 3.133c-41.551-107.599-321.851-77.391-334.769-284.948h901.041c-12.918 207.557-292.037 177.349-333.588 284.948z" />
<glyph unicode="&#xe912;" glyph-name="trash" d="M685.714 64c17.662 0.042 31.963 14.369 31.963 32.036 0 0 0 0 0 0v0 383.927c0 17.673-14.327 32-32 32s-32-14.327-32-32v0-384c0.042-17.662 14.369-31.963 32.036-31.963 0 0 0 0 0 0v0zM877.714 832h-192v64c0 35.346-28.654 64-64 64v0h-192c-35.346 0-64-28.654-64-64v0-64h-192c-35.346 0-64-28.654-64-64v0-64c0-35.346 28.654-64 64-64v0-576c0-70.692 57.308-128 128-128v0h448c70.692 0 128 57.308 128 128v0 576c35.346 0 64 28.654 64 64v0 64c0 35.346-28.654 64-64 64v0zM429.714 864.037c0 0 0 0 0 0 0 17.668 14.302 31.995 31.959 32.036h128.004c17.662-0.042 31.963-14.369 31.963-32.036 0 0 0 0 0 0v0-32.037h-191.927zM813.714 64c0-35.346-28.654-64-64-64v0h-448c-35.346 0-64 28.654-64 64v0 576h576zM845.751 704h-640c-17.022 0.839-30.506 14.845-30.506 32s13.484 31.161 30.431 31.997l0.075 0.003h640c17.022-0.839 30.506-14.845 30.506-32s-13.484-31.161-30.431-31.997l-0.075-0.003zM365.714 64c17.693 0 32.037 14.343 32.037 32.037v0 383.927c-0.839 17.022-14.845 30.506-32 30.506s-31.161-13.484-31.997-30.431l-0.003-0.075v-384c0.042-17.636 14.327-31.922 31.959-31.963h0.004zM525.678 64c17.662 0.042 31.963 14.369 31.963 32.036 0 0 0 0 0 0v0 383.927c0 17.673-14.327 32-32 32s-32-14.327-32-32v0-384c0.041-17.585 14.244-31.839 31.805-31.963h0.012z" />
<glyph unicode="&#xe913;" glyph-name="pencil1" d="M521.856 763.072l-364.288-374.144-157.568-452.928 452.928 147.712 364.288 364.288zM984.64 792.64l-128 128c-21.931 24.231-53.5 39.389-88.608 39.389s-66.677-15.158-88.517-39.287l-0.091-0.102-108.352-108.352 295.36-305.216 118.144 118.144c23.734 22.29 38.727 53.648 39.422 88.514l0.002 0.126c-3.004 31.4-17.539 58.929-39.262 78.696l-0.098 0.088z" />
<glyph unicode="&#xe914;" glyph-name="circle" d="M1024 448c0-282.77-229.23-512-512-512s-512 229.23-512 512c0 282.77 229.23 512 512 512s512-229.23 512-512z" />
<glyph unicode="&#xe915;" glyph-name="cscenter-woman" horiz-adv-x="866" d="M865.693 86.354c-0.805 6.67-2.041 12.641-3.724 18.421l0.2-0.804c-12.71 50.464-36.121 94.301-67.789 130.775l0.329-0.387c-23.327 25.822-55.16 43.572-91.052 48.817l-0.825 0.099c-2.267 0.495-4.554 1.030-6.903 1.422-7.725 7.679-13.801 17.008-17.653 27.416l-0.17 0.524c-9.376 28.414-14.784 61.12-14.784 95.089 0 5.284 0.131 10.538 0.39 15.758l-0.029-0.734c0.206 21.924 1.484 43.724 3.194 63.566 26.815 8.019 46.138 32.185 46.772 60.959l0.001 0.072v50.77c-0.486 27.393-17.911 50.593-42.225 59.609l-0.448 0.145c-0.124 0.762-0.206 1.545-0.309 2.267-0.824 5.522-1.751 10.879-2.72 16.134-0.495 2.411-0.886 4.883-1.36 7.294-1.339 6.47-2.782 12.754-4.327 18.853v41.622c0 119.117-103.169 215.96-229.93 215.96s-229.93-96.843-229.93-216.021v-46.897c-1.071-4.554-2.164-8.943-3.111-13.661-0.474-2.37-0.886-4.822-1.339-7.212-0.989-5.254-1.916-10.673-2.761-16.195-0.124-0.742-0.206-1.545-0.309-2.267-24.648-9.191-41.989-32.297-42.527-59.524l-0.001-0.065v-50.832c0.612-28.817 19.872-52.975 46.168-60.932l0.461-0.12c1.71-19.884 3.008-41.704 3.214-63.628 0.239-4.566 0.375-9.913 0.375-15.292 0-33.899-5.414-66.533-15.424-97.085l0.625 2.203c-4.019-10.905-10.094-20.209-17.817-27.851l-0.006-0.006c-2.37-0.433-4.615-0.927-6.82-1.484-36.732-5.299-68.582-23.051-91.778-48.761l-0.119-0.134c-31.332-36.102-54.752-79.94-67.031-128.226l-0.47-2.182c-2.333-7.767-3.676-16.693-3.676-25.932 0-15.473 3.766-30.066 10.432-42.912l-0.245 0.519c40.241-76.135 251.812-99.501 422.812-99.501s382.612 23.366 422.812 99.46c6.454 12.252 10.242 26.774 10.242 42.181 0 3.068-0.15 6.101-0.444 9.092l0.030-0.379zM432.331 914.917c0.479 0.004 1.046 0.007 1.613 0.007 61.422 0 115.857-29.915 149.53-75.969l0.365-0.523-0.247 0.206c-1.133 0.927-2.225 1.875-3.297 2.74q-4.327 3.42-8.736 6.47c-0.414 0.354-0.871 0.706-1.345 1.034l-0.057 0.037c-3.42 2.37-6.82 4.554-10.302 6.594-1.010 0.577-2.060 1.133-2.967 1.669-2.452 1.442-4.904 2.782-7.294 3.997-1.257 0.68-2.514 1.257-3.75 1.896-2.225 1.133-4.368 2.060-6.552 3.070l-3.812 1.648c-2.225 0.927-4.389 1.751-6.614 2.576l-3.42 1.298c-2.555 0.927-5.151 1.772-7.665 2.534-0.701 0.185-1.442 0.474-2.060 0.659-3.173 0.948-6.181 1.772-9.313 2.514l-2.946 0.639c-2.060 0.474-4.121 0.968-6.181 1.381l-3.462 0.639c-1.793 0.309-3.523 0.618-5.192 0.865-1.133 0.185-2.267 0.371-3.338 0.474-1.648 0.247-3.317 0.412-4.925 0.598-1.133 0-2.060 0.247-3.070 0.35l-7.335 0.577c-2.267 0.144-4.306 0.185-6.346 0.288h-5.687c-4.904 0-8.881-0.185-11.642-0.433-0.142 0.012-0.307 0.019-0.474 0.019s-0.332-0.007-0.495-0.020l0.021 0.001c-1.030 0-1.813-0.144-2.411-0.206h-0.618c-0.136 0.018-0.294 0.028-0.453 0.028s-0.317-0.010-0.472-0.030l0.018 0.002c-2.885 0.185-5.687 0.309-8.551 0.391s-5.687-0.227-8.551-0.35c-0.133-0.011-0.287-0.018-0.443-0.018s-0.31 0.006-0.463 0.019l0.020-0.001h-0.639c-0.515 0-1.401 0.165-2.349 0.227-0.142-0.012-0.307-0.019-0.474-0.019s-0.332 0.007-0.495 0.020l0.021-0.001c-2.823 0.247-6.738 0.412-11.662 0.412h-5.605c-2.060 0-4.121-0.144-6.408-0.268-0.659 0-1.401 0-2.060-0.185-1.69 0-3.42-0.247-5.254-0.433-0.948 0-1.896-0.185-2.823-0.33-1.71-0.165-3.42-0.391-5.213-0.618-1.030-0.144-2.060-0.33-3.091-0.453-1.854-0.288-3.729-0.618-5.687-0.989-1.010-0.185-2.060-0.33-3.091-0.536-2.225-0.453-4.43-0.948-6.82-1.442l-2.349-0.536c-3.132-0.721-6.346-1.566-9.519-2.555-0.515-0.144-1.051-0.35-1.566-0.474-2.679-0.845-5.419-1.731-8.242-2.699l-3.173-1.133c-2.267-0.886-4.554-1.772-6.903-2.74-1.133-0.474-2.37-0.989-3.544-1.545-2.267-0.948-4.554-2.060-6.82-3.173-1.133-0.577-2.349-1.133-3.523-1.731-2.493-1.339-5.131-2.74-7.686-4.245-0.845-0.515-1.731-0.968-2.576-1.504-3.42-2.060-6.923-4.265-10.426-6.655l-0.927-0.701c-3.091-2.060-6.181-4.451-9.21-6.82-1.010-0.804-2.060-1.669-3.070-2.493s-2.060-1.813-3.111-2.72c33.863 47.903 89.024 78.801 151.402 78.801 0.588 0 1.175-0.003 1.761-0.008l-0.090 0.001zM593.049 296.111c-1.026-7.060-3.915-13.307-8.147-18.399l0.049 0.060c-37.866-41.060-91.931-66.69-151.981-66.69s-114.116 25.63-151.852 66.548l-0.129 0.142c-4.17 5.041-7.067 11.281-8.113 18.13l-0.026 0.209c1.051 0.391 3.503 1.236 6.738 2.699 1.741 0.735 3.142 1.425 4.502 2.181l-0.237-0.121c18.086 7.978 30.719 25.278 31.849 45.647l0.006 0.137c18.696-19.137 41.067-34.592 65.983-45.237l1.333-0.506c14.993-6.362 32.429-10.059 50.729-10.059s35.737 3.698 51.603 10.386l-0.874-0.327c26.023 11.070 48.205 26.383 66.725 45.296l0.034 0.035 0.433-0.227c2.771-23.544 19.153-42.636 40.96-49.342l0.415-0.11c-0.006-0.164-0.036-0.319-0.086-0.465l0.003 0.011zM612.541 494.392c-2.036-2.017-4.838-3.264-7.932-3.264-0.37 0-0.737 0.018-1.098 0.053l0.046-0.004c-1.79 0.339-3.344 1.181-4.555 2.371l0.001-0.001c-2.431-7.541-5.275-15.083-8.242-22.542-31.383-18.247-68.565-30.129-108.255-32.922l-0.807-0.046c-5.404 8.316-14.648 13.74-25.158 13.743h-40.056c-16.25-0.439-29.255-13.717-29.255-30.032s13.005-29.593 29.215-30.031l0.040-0.001h39.87c11.49 0.026 21.455 6.529 26.44 16.051l0.078 0.165c31.267 2.364 60.275 9.017 87.441 19.399l-2.116-0.71c-15.423-26.042-34.528-48.101-56.912-66.281l-0.452-0.355c-20.798-17.284-47.54-28.070-76.771-28.945l-0.188-0.004c-29.656 0.895-56.595 11.839-77.692 29.523l0.197-0.161c-40.562 34.468-71.044 79.644-87.155 131.169l-0.539 2c-1.224-1.164-2.771-2-4.493-2.359l-0.060-0.011c-0.245-0.017-0.531-0.027-0.82-0.027-3.868 0-7.322 1.777-9.589 4.558l-0.018 0.022c-1.158 1.287-2.255 2.692-3.252 4.171l-0.086 0.136v82.461c2.379-0.306 4.491-1.267 6.201-2.694l-0.019 0.016v0.659c0.968 9.664 13.867 118.045 94.988 110.545l248.247-127.75 14.568 14.011v-80.915c-0.602-0.754-1.195-1.426-1.819-2.067l0.006 0.006z" />
<glyph unicode="&#xe916;" glyph-name="fire" horiz-adv-x="1066" d="M487.714 388.081c0-2.584 0-5.236 0-7.965-0.071-3.379-0.632-6.601-1.615-9.633l0.066 0.237c3.698 0.706 7.952 1.109 12.301 1.109 37.975 0 68.76-30.785 68.76-68.76 0-0.077 0-0.154 0-0.231v0.012h145.416c5.842 0 10.578 4.736 10.578 10.578v0 246.886c0 5.842-4.736 10.578-10.578 10.578v0h-254.154c1.123-3.136 2.226-6.3 3.3-9.523 16.462-50.049 25.957-107.654 25.957-167.476 0-2.044-0.011-4.085-0.033-6.124l0.003 0.312zM593.558 383.242v16.839h98.838v-16.839zM692.377 448.498v-17.662h-98.799v17.662zM593.558 455.050v17.662h98.838v-17.662zM692.377 424.285v-17.662h-98.799v17.71zM692.377 496.103v-16.839h-98.799v16.839zM888.707 371.832c38.1-0.044 68.983-30.882 69.098-68.961v-0.011h35.527c8.75 0.033 15.834 7.12 15.862 15.869v5.461h5.149c8.616 0 15.6 6.985 15.6 15.6v0 29.139c0 8.616-6.985 15.6-15.6 15.6v0h-5.149v74.905c-0.442 10.945-3.126 21.162-7.602 30.345l0.199-0.451-42.92 81.292c-4.885 8.029-13.364 13.451-23.147 14.029l-0.079 0.004h-10.2v22.471h-59.295v-22.481h-105.796c-8.749-0.027-15.834-7.113-15.862-15.859v-250.063c0.022-8.753 7.109-15.844 15.859-15.871h59.249c0.115 38.096 31.003 68.938 69.104 68.982h0.004zM867.706 471.154h-39.059v8.458h39.059zM944.837 563.198l37.027-70.134h-88.608v75.718h42.359c3.816-0.566 7.068-2.617 9.205-5.535l0.027-0.039zM881.613 568.772v-75.708h-121.261v75.718zM945.621 302.724c0 31.411-25.464 56.875-56.875 56.875s-56.875-25.464-56.875-56.875c0-31.411 25.464-56.875 56.875-56.875v0c31.411 0 56.875 25.464 56.875 56.875v0zM856.325 302.724c0.006 17.896 14.514 32.401 32.41 32.401 17.9 0 32.41-14.511 32.41-32.41 0-17.896-14.505-32.405-32.4-32.41h-0.001c-0.003 0-0.006 0-0.010 0-17.911 0-32.433 14.511-32.449 32.418v0.002zM474.93 354.2c-0.261-5.129-0.513-10.258-0.89-15.426-1.614-20.443-14.064-37.639-31.552-45.97l-0.336-0.144c4.97-26.722 28.103-46.685 55.898-46.685 31.374 0 56.808 25.434 56.808 56.808s-25.434 56.808-56.808 56.808c-7.916 0-15.454-1.619-22.301-4.544l0.371 0.141c-0.368-0.339-0.803-0.658-1.19-0.987zM530.518 302.724c0-0.006 0-0.013 0-0.019 0-17.905-14.515-32.42-32.42-32.42s-32.42 14.515-32.42 32.42c0 17.905 14.515 32.42 32.42 32.42v0c17.885-0.027 32.377-14.516 32.41-32.398v-0.003zM932.062 626.431h131.742v101.422h-132.584v-54.446l-497.721-46.878c7.14-12.477 14.224-27.317 20.255-42.687l0.823-2.382zM404.148 238.803c0-1.152 0-2.342 0-3.474 0-2.903 0-5.807-0.058-8.536v-2.032h661.408v14.052h-661.35zM124.987 203.412v-218.463c0-27.018 21.902-48.92 48.92-48.92s48.92 21.902 48.92 48.92v0 200.008c-37.759 4.722-70.943 11.192-103.314 19.674l5.473-1.218zM241.167 184.947v-199.998c0-27.018 21.902-48.92 48.92-48.92s48.92 21.902 48.92 48.92v0 218.463c-26.9-7.269-60.085-13.742-93.943-18.059l-3.898-0.406zM76.763 345.064q-0.658 9.136-1.036 18.010c-9.221-2.19-19.807-3.445-30.687-3.445-0.034 0-0.068 0-0.102 0h0.005c-11.546 0.027-22.774 1.323-33.573 3.756l1.027-0.194c0.281-7.461 0.677-15.010 1.229-22.694 1.231-16.453 14.872-29.339 31.527-29.362h0.002q1.161 0 2.332 0.087c16.471 1.276 29.353 14.955 29.353 31.644 0 0.784-0.028 1.561-0.084 2.331l0.006-0.103zM44.933 371.503c0.132-0.001 0.287-0.001 0.443-0.001 14.755 0 28.908 2.574 42.036 7.299l-0.865-0.272c0.345 0.933 0.546 2.010 0.552 3.133v0.002c0 2.11 0 4.258 0 6.445-0.006 0.895-0.010 1.953-0.010 3.012 0 38.386 4.59 75.7 13.25 111.423l-0.66-3.22c-23.895 10.929-44.154 22.355-63.344 35.25l1.581-1.001c-5.855 3.745-11.333 7.336-16.191 10.568-13.8-45.391-21.745-97.56-21.745-151.584 0-1.578 0.007-3.154 0.020-4.728l-0.002 0.241c0-2.477 0-5.032 0-7.655 0.026-0.564 0.099-1.095 0.215-1.609l-0.012 0.061c1.994-0.677 4.307-1.413 6.978-2.158 11.308-3.273 24.301-5.172 37.733-5.207h0.019zM108.486 529.858c4.328 12.823 8.804 23.464 13.93 33.725l-0.691-1.527c-3.3-18.388-7.19-40.849-11.216-65.808l1.848-0.503c1.752-0.474 4.365-1.171 7.742-2.013 6.697-1.674 16.326-3.919 27.881-6.165 25.087-5.308 54.065-8.545 83.73-8.939l0.31-0.003c42.926 0.953 83.994 7.142 123.144 17.951l-3.528-0.831 1.848 0.503c-4.016 24.949-7.916 47.42-11.216 65.808 4.439-8.736 8.915-19.374 12.686-30.339l0.553-1.848c29.432 14.783 54.333 29.788 77.991 46.441l-1.925-1.285c-11.9 32.098-28.919 59.683-50.331 83.197l0.181-0.202c-18.448 18.561-41.568 32.459-67.448 39.783l-1.089 0.263q-4.384 1.268-8.71 2.284v20.933c-17.801-19.884-43.549-32.339-72.205-32.339s-54.403 12.455-72.124 32.247l-0.081 0.092v-20.952c-2.903-0.687-5.807-1.442-8.71-2.294-26.969-7.589-50.088-21.487-68.53-40.039l-0.007-0.008c-21.197-23.314-38.187-50.895-49.494-81.245l-0.568-1.741c6.078-4.123 13.887-9.31 22.471-14.797 15.101-10.144 32.644-20.246 50.872-29.163l2.684-1.186zM199.021 636.883h65.943v-18.465h-65.943zM199.021 523.461v18.465h65.943v-18.465zM416.506 311.211c0.774-0.058 1.548-0.077 2.323-0.077 16.664 0.018 30.313 12.904 31.543 29.256l0.006 0.106c0.561 7.684 0.968 15.242 1.239 22.704-9.771-2.244-20.999-3.543-32.526-3.571h-0.020c-0.032 0-0.069 0-0.107 0-10.88 0-21.467 1.256-31.623 3.63l0.936-0.184q-0.377-8.865-1.026-18c-0.053-0.688-0.084-1.491-0.084-2.3 0-16.666 12.883-30.323 29.233-31.555l0.106-0.006zM419.051 371.503c16.004 0.043 31.365 2.735 45.686 7.662l-0.995-0.298c0.103 0.455 0.176 0.989 0.202 1.536l0.001 0.022q0.058 3.939 0.058 7.665c0.013 1.395 0.020 3.045 0.020 4.696 0 53.937-7.921 106.025-22.662 155.163l0.983-3.817c-4.839-3.232-10.326-6.832-16.191-10.578-17.606-11.895-37.862-23.321-59.026-33.117l-2.727-1.132c8.001-32.496 12.591-69.803 12.591-108.181 0-1.067-0.004-2.133-0.011-3.198l0.001 0.164c0-2.187 0-4.336 0-6.445 0.003-1.111 0.198-2.175 0.553-3.162l-0.021 0.066c12.272-4.464 26.438-7.046 41.206-7.046 0.116 0 0.232 0 0.348 0h-0.018zM232.002 284.753c-52.041 0.738-102.32 6.341-150.981 16.373l5.159-0.889c-1.936-26.188-2.903-51.079-2.584-73.211 0 0 108.835-30.659 148.397-30.659s148.406 30.659 148.406 30.659c0.319 22.133-0.687 47.014-2.584 73.211-43.499-9.142-93.775-14.744-145.229-15.478l-0.584-0.007zM88.841 332.009l1.587-0.319c8.468-1.694 20.613-3.968 35.198-6.232 31.721-5.38 68.506-8.656 105.982-9.045l0.385-0.003c50.561 0.784 99.354 6.307 146.565 16.144l-5.010-0.873 1.597 0.319c-4.2 44.43-10.394 90.834-16.742 132.796-37.68-10.465-81.1-16.901-125.882-17.779l-0.527-0.008c-45.312 0.899-88.726 7.344-130.117 18.685l3.717-0.868c-6.368-42.011-12.552-88.395-16.752-132.816zM199.021 393.568h65.943v-18.465h-65.943zM231.992 830.639c48.262 0 96.931-13.839 96.931-44.778 0-1.306 0-2.594-0.097-3.871 37.743 6.997 62.092 17.971 62.092 30.32s-24.63 23.459-62.759 30.446c-5.924 12.938-12.347 29.606-17.907 46.664l-1.032 3.659c-3.871 12.978-20.168 21.223-36.775 26.372 1.951-5.705 3.077-12.278 3.077-19.113 0-0.010 0-0.020 0-0.031v0.002c0-28.772-19.481-52.095-43.549-52.095s-43.549 23.323-43.549 52.095c0 0.008 0 0.018 0 0.027 0 6.807 1.116 13.354 3.174 19.468l-0.126-0.43c-16.51-5.158-32.643-13.384-36.514-26.294-6.581-20.711-12.997-37.38-20.226-53.607l1.306 3.283c-38.275-6.987-63.011-18.039-63.011-30.494s24.349-23.323 62.092-30.32c-0.058 1.297-0.097 2.584-0.097 3.871 0.048 30.988 48.678 44.827 96.97 44.827zM321.017 785.899c0 49.162-178.068 49.162-178.068 0 0-49.172 39.862-89.034 89.034-89.034s89.034 39.862 89.034 89.034v0zM195.73 907.905c0-28.772 16.239-52.095 36.272-52.095s36.262 23.323 36.262 52.095c0.002 0.193 0.003 0.42 0.003 0.648 0 11.137-2.687 21.646-7.449 30.914l0.178-0.381c-4.988 11.664-15.938 19.898-28.915 20.906l-0.118 0.007c-13.093-1.026-24.040-9.26-28.948-20.7l-0.085-0.223c-4.542-8.853-7.205-19.316-7.205-30.401 0-0.271 0.002-0.542 0.005-0.812v0.041z" />
<glyph unicode="&#xe917;" glyph-name="cscenter-man" horiz-adv-x="840" d="M587.946 364.594c-1.103-50.495-75.946-91.298-168.18-91.298s-167.1 40.78-168.204 91.298c-141.681-13.467-251.631-131.844-251.658-275.907v-0.003c0-153.043 124.066-152.684 277.109-152.684h285.457c153.019 0 277.085-0.384 277.085 152.684-0.013 144.055-109.945 262.43-250.493 275.824l-1.117 0.086zM186.987 556.474c5.71-1.606 12.268-2.533 19.041-2.543h13.222c27.298-123.634 106.867-213.037 200.42-213.037 84.174 0 156.666 72.228 190.465 176.432 15.204 10.577 28.044 23.302 38.418 37.903l0.323 0.478c0.768 0.168 1.559 0.24 2.399 0.432 29.461 6.672 51.24 32.313 51.933 63.157l0.001 0.075v51.334c-0.705 30.897-22.47 56.515-51.467 63.1l-0.444 0.085v7.82c0 120.324-104.228 218.291-232.252 218.291s-232.060-97.871-232.060-218.291v-8.276c-28.771-7.155-49.869-32.458-50.541-62.799l-0.001-0.074v-51.19c0.654-30.427 21.759-55.746 50.087-62.801l0.455-0.096zM419.67 373.325c-93.817 0-171.322 101.901-183.508 234.051 11.22-2.976 21.040-7.708 29.697-13.95l-0.264 0.181s-20.942 124.378 23.292 141.841c38.314-17.788 82.936-29.166 129.936-31.511l0.847-0.034c47.856 2.381 92.485 13.758 133.036 32.467l-2.23-0.923c44.21-17.463 23.244-141.817 23.244-141.841 8.281 5.986 17.959 10.679 28.399 13.527l0.627 0.146v-2.999c-1.563-15.537-3.77-29.267-6.709-42.724l0.448 2.448c-37.009-29.214-84.017-47.268-135.195-48.451l-0.265-0.005c-5.2 4.473-12.017 7.196-19.47 7.196-0.003 0-0.006 0-0.008 0h-40.203c-16.752 0-30.333-13.58-30.333-30.333s13.58-30.333 30.333-30.333v0h40.276c8.184 0.002 15.607 3.259 21.045 8.547l-0.007-0.007c41.187 1.896 79.673 11.483 114.707 27.35l-1.963-0.796c-33.055-74.507-90.363-123.85-155.73-123.85zM419.070 914.423c1.25 0.031 2.721 0.049 4.197 0.049 88.967 0 162.891-64.405 177.692-149.134l0.156-1.080c-35.701 64.786-103.547 107.948-181.473 107.948-79.178 0-147.949-44.559-182.603-109.969l-0.542-1.121c13.517 87.308 88.139 153.361 178.188 153.361 1.542 0 3.079-0.019 4.611-0.058l-0.227 0.005z" />
<glyph unicode="&#xe918;" glyph-name="callman" horiz-adv-x="951" d="M879.163 245.25c1.278 0 2.555 0 3.853 0-47.688 88.347-135.63 149.642-238.587 159.456l-1.222 0.094c-1.216-55.244-83.123-99.835-184.009-99.835s-182.773 44.591-183.988 99.835c-154.961-14.759-275.205-144.253-275.21-301.832v0c0-167.401 135.709-167.009 303.11-167.009l401.811 1.051c-18.259 29.907-29.071 66.091-29.071 104.801 0 112.341 91.057 203.414 203.392 203.44h0.003zM221.532 678.794q0.247-3.276 0.556-6.553c14.63-165.505 111.477-293.384 228.723-293.384 118.812 0 216.628 131.196 229.28 299.833 1.694 11.161 2.662 24.038 2.662 37.142s-0.968 25.981-2.836 38.565l0.174-1.423c-14.729 115.599-111.243 204.431-229.018 207.021l-0.262 0.005c-118.052-2.608-214.571-91.466-229.158-205.916l-0.122-1.171c-1.692-11.103-2.658-23.914-2.658-36.95 0-0.049 0-0.098 0-0.147v0.008c0-5.11 0.185-10.303 0.495-15.228q0.618-11.024 2.164-21.801zM307.767 810.423s160.292-77.972 268.080 0c0 0 63.878-101.277 46.033-141.005l32.536 37.482c-0.136-10.446-0.955-20.575-2.416-30.495l0.149 1.235c-11.148-148.114-97.032-263.341-201.318-263.341-102.616 0-187.512 111.497-200.72 256.005 12.272-3.201 23.020-8.331 32.501-15.119l-0.294 0.2s-22.955 135.998 25.427 155.037zM947.759 133.011c-11.148 12.508-20.482 31.176-44.199 7.913-7.064-5.951-12.176-14.017-14.365-23.215l-0.059-0.296c-0.989-6.82 5.481-15.516 8.696-20.008 1.495-2.628 2.376-5.774 2.376-9.126 0-3.665-1.054-7.084-2.875-9.971l0.045 0.077c-3.454-5.331-6.906-9.936-10.638-14.294l0.15 0.179c-4.554-5.296-8.572-9.17-8.531-9.108s-3.524-4.307-8.469-9.19c-4.066-4.007-8.408-7.767-12.982-11.238l-0.329-0.239c-3.052-2.251-6.887-3.602-11.037-3.602-2.883 0-5.614 0.652-8.053 1.817l0.113-0.049c-5.619 4.447-12.789 7.159-20.589 7.232h-0.017c-9.248-2.936-16.93-8.605-22.311-16.048l-0.088-0.127c-21.492-25.366-2.267-33.299 11.086-43.519s57.407 15.104 97.733 56.357 55.512 83.865 44.343 96.455z" />
<glyph unicode="&#xe919;" glyph-name="rec-pause" horiz-adv-x="1017" d="M832.539 317.416h-344.333c-80.342 0-145.676-47.038-145.676-104.9v-171.636c0-57.842 65.335-104.9 145.676-104.9h344.333c80.342 0 145.676 47.038 145.676 104.9v171.636c0.021 57.863-65.335 104.9-145.676 104.9zM633.882 40.879c0-5.264-5.943-9.531-13.245-9.531h-79.45c-7.302 0-13.245 4.245-13.245 9.531v171.636c0 5.264 5.943 9.531 13.245 9.531h79.408c7.302 0 13.245-4.245 13.245-9.531zM792.803 40.879c0-5.264-5.943-9.531-13.245-9.531h-79.45c-7.302 0-13.245 4.245-13.245 9.531v171.636c0 5.264 5.943 9.531 13.245 9.531h79.471c7.302 0 13.245-4.245 13.245-9.531zM508.519 960c-0.017 0-0.036 0-0.056 0-280.836 0-508.498-227.662-508.498-508.498 0-192.832 107.336-360.595 265.521-446.8l2.665-1.33c2.898-1.581 6.347-2.51 10.014-2.51 4.629 0 8.912 1.482 12.4 3.997l-0.063-0.043c5.345 3.903 8.778 10.147 8.778 17.193 0 1.23-0.105 2.435-0.305 3.607l0.018-0.126c-1.345 6.907-2.217 14.955-2.416 23.169l-0.003 0.18v169.556c0 0.014 0 0.030 0 0.046 0 48.857 23.84 92.146 60.521 118.869l0.42 0.292c5.266 3.908 8.641 10.106 8.641 17.093 0 3.983-1.097 7.71-3.006 10.895l0.054-0.096c-15.125 24.504-24.129 54.183-24.24 85.957v0.031c1.072 92.8 76.55 167.617 169.503 167.617s168.431-74.816 169.502-167.515l0.001-0.101c-0.224-20.34-4.042-39.722-10.848-57.633l0.383 1.149c-0.759-2.101-1.198-4.525-1.198-7.052 0-4.593 1.45-8.847 3.917-12.33l-0.045 0.066c3.869-5.434 10.146-8.937 17.241-8.937 0.036 0 0.071 0 0.107 0h181.162c38.753-0.171 73.952-15.249 100.187-39.792l-0.083 0.077c3.762-3.451 8.798-5.566 14.329-5.566 10.016 0 18.411 6.937 20.644 16.268l0.029 0.145c8.4 34.556 13.218 74.229 13.218 115.027 0 280.062-227.035 507.097-507.097 507.097-0.491 0-0.981-0.001-1.472-0.002h0.076zM238.839 181.78c3.346-3.736 5.391-8.697 5.391-14.135 0-11.723-9.503-21.226-21.226-21.226-5.449 0-10.419 2.053-14.177 5.429l0.020-0.017c-76.583 76.736-123.94 182.663-123.94 299.652s47.357 222.916 123.946 299.659l-0.007-0.007c3.911 4.461 9.622 7.262 15.986 7.262 11.723 0 21.226-9.503 21.226-21.226 0-6.365-2.801-12.075-7.238-15.966l-0.024-0.021c-68.919-69.066-111.537-164.401-111.537-269.691s42.617-200.625 111.543-269.697l-0.006 0.006zM550.887 451.481c0-23.399-18.969-42.368-42.368-42.368s-42.368 18.969-42.368 42.368c0 23.399 18.969 42.368 42.368 42.368s42.368-18.969 42.368-42.368z" />
<glyph unicode="&#xe91a;" glyph-name="rec-play" d="M874.709 319.979h-426.667c-58.89-0.060-106.615-47.778-106.688-106.66v-170.674c0.072-58.881 47.785-106.594 106.66-106.667h426.674c58.881 0.072 106.594 47.785 106.667 106.66v170.674c-0.072 58.874-47.773 106.582-106.637 106.667h-0.008zM758.533 110.212l-128-85.333c-3.316-2.247-7.406-3.587-11.808-3.587-0.005 0-0.011 0-0.016 0h0.001c-3.684 0.014-7.148 0.947-10.176 2.583l0.115-0.057c-6.755 3.672-11.265 10.712-11.272 18.806v170.668c0 0.005 0 0.011 0 0.017 0 11.782 9.551 21.333 21.333 21.333 4.424 0 8.534-1.347 11.941-3.653l-0.075 0.048 128-85.333c5.757-3.881 9.493-10.377 9.493-17.746s-3.736-13.865-9.417-17.698l-0.076-0.048zM512.021 960c-0.001 0-0.002 0-0.003 0-282.77 0-512-229.23-512-512 0-194.152 108.066-363.064 267.33-449.867l2.683-1.338c2.924-1.617 6.411-2.568 10.121-2.568 4.638 0 8.929 1.488 12.421 4.012l-0.062-0.043c5.417 3.932 8.899 10.243 8.899 17.368 0 1.221-0.102 2.417-0.298 3.582l0.018-0.126c-1.361 6.986-2.241 15.122-2.438 23.427l-0.003 0.177v170.667c0 0.011 0 0.023 0 0.036 0 49.195 24.007 92.784 60.945 119.689l0.423 0.294c5.312 3.905 8.72 10.13 8.72 17.151 0 4.038-1.127 7.812-3.085 11.026l0.053-0.094c-15.232 24.667-24.3 54.545-24.411 86.534v0.031c0 94.262 76.415 170.677 170.677 170.677s170.677-76.415 170.677-170.677v0c-0.253-20.489-4.124-39.998-11.001-58.023l0.387 1.156c-0.766-2.118-1.209-4.561-1.209-7.109 0-4.628 1.462-8.915 3.95-12.423l-0.045 0.067c3.892-5.473 10.21-9.001 17.352-9.001 0.034 0 0.068 0 0.102 0h182.4c39.016-0.165 74.456-15.342 100.871-40.049l-0.084 0.078c3.785-3.55 8.891-5.73 14.507-5.73 10.106 0 18.562 7.062 20.704 16.52l0.027 0.142c8.461 34.8 13.314 74.753 13.314 115.839 0 281.984-228.593 510.578-510.578 510.578-0.479 0-0.959-0.001-1.438-0.002h0.074zM240.483 176.44c3.579-3.809 5.779-8.952 5.779-14.608 0-11.794-9.561-21.355-21.355-21.355-5.667 0-10.818 2.207-14.641 5.809l0.011-0.010c-77.107 77.264-124.789 183.92-124.789 301.713s47.681 224.448 124.796 301.72l-0.007-0.007c3.86 3.86 9.192 6.247 15.082 6.247 11.78 0 21.329-9.549 21.329-21.329 0-5.89-2.387-11.222-6.247-15.082v0c-69.389-69.54-112.296-165.528-112.296-271.538s42.907-201.998 112.303-271.545l-0.007 0.007zM554.688 447.979c0-23.564-19.103-42.667-42.667-42.667s-42.667 19.103-42.667 42.667c0 23.564 19.103 42.667 42.667 42.667s42.667-19.103 42.667-42.667z" />
<glyph unicode="&#xe91b;" glyph-name="crime" horiz-adv-x="910" d="M158.219-9.359c-58.043 14.765-100.631 65.645-102.652 126.794l-0.006 0.22c-0.174 2.615-0.273 5.668-0.273 8.744 0 77.556 62.872 140.428 140.428 140.428 61.268 0 113.372-39.237 132.555-93.954l0.301-0.984 53.74 3.215c-21.699 85.228-97.764 147.256-188.317 147.256-107.167 0-194.042-86.876-194.042-194.042 0-4.358 0.144-8.683 0.427-12.969l-0.031 0.582c4.345-91.286 72.122-165.518 160.014-179.794l1.1-0.147zM331.255 194.513c5.781-14.426 9.598-31.125 10.632-48.574l0.021-0.44c0.218-3.084 0.342-6.682 0.342-10.309 0-82.526-64.192-150.059-145.369-155.39l-0.465-0.024c-3.325-0.275-7.197-0.432-11.105-0.432-14.902 0-29.27 2.282-42.775 6.517l1.012-0.273 2.208-36.995c12.27-3.132 26.355-4.929 40.861-4.929 4.205 0 8.375 0.151 12.504 0.448l-0.554-0.032c100.532 6.679 179.546 89.859 179.546 191.495 0 4.246-0.138 8.459-0.409 12.636l0.030-0.569c-1.265 17.95-4.731 34.652-10.146 50.45l0.413-1.387zM271.481 460.687l-194.004-7.060c2.344-125.204-61.595-254.388-61.595-254.388 168.087 184.609 352.445 10.75 352.445 10.75zM135.266 385.398c-0.413-0.027-0.896-0.042-1.383-0.042-12.703 0-23.001 10.298-23.001 23.001s10.298 23.001 23.001 23.001c12.222 0 22.217-9.532 22.957-21.568l0.003-0.065c0.026-0.412 0.041-0.893 0.041-1.377 0-12.215-9.526-22.205-21.554-22.947l-0.065-0.003zM232.113 391.209c-0.402-0.025-0.871-0.039-1.344-0.039-12.687 0-22.972 10.285-22.972 22.972s10.285 22.972 22.972 22.972c12.203 0 22.184-9.515 22.928-21.531l0.003-0.065c0.027-0.415 0.042-0.9 0.042-1.388 0-12.208-9.515-22.194-21.534-22.946l-0.066-0.003zM854.034 830.651c-25.082 44.533-72.057 74.118-125.942 74.118-6.858 0-13.603-0.479-20.205-1.406l0.761 0.087c-67.568-10.644-118.628-68.456-118.628-138.194 0-7.816 0.641-15.481 1.874-22.948l-0.111 0.812c10.248-62.735 60.392-111.191 123.129-118.774l0.68-0.067 8.009-53.266c-94.413 3.617-171.501 73.384-186.411 164.093l-0.154 1.138c-1.45 8.914-2.278 19.189-2.278 29.657 0 96.916 70.995 177.251 163.815 191.834l1.097 0.142c8.045 1.164 17.334 1.828 26.778 1.828 81.349 0 151.182-49.307 181.245-119.665l0.488-1.285zM693.985 616.94c7.741-1.402 16.65-2.204 25.747-2.204 8.079 0 16.010 0.632 23.746 1.851l-0.857-0.111c75.572 11.778 132.721 76.396 132.721 154.362 0 8.307-0.649 16.462-1.898 24.418l0.114-0.882c-2.867 19.359-9.044 36.786-17.973 52.441l0.386-0.734 36.657 5.52c7.31-15.1 12.77-32.621 15.473-51.037l0.119-0.989c1.398-8.685 2.197-18.698 2.197-28.897 0-95.471-69.985-174.595-161.451-188.87l-1.076-0.138c-8.493-1.378-18.282-2.165-28.255-2.165-7.105 0-14.117 0.4-21.014 1.178l0.846-0.078zM683.458 577.039s-208.317 144.195-62.602 346.944c0 0-113.098-89.361-236.064-113.049l33.344-191.253zM444.188 742.414c-1.026-0.162-2.208-0.255-3.413-0.255-12.687 0-22.972 10.285-22.972 22.972s10.285 22.972 22.972 22.972c11.476 0 20.987-8.415 22.698-19.411l0.017-0.129c0.167-1.039 0.262-2.236 0.262-3.456 0-11.478-8.429-20.988-19.435-22.677l-0.128-0.016zM458.715 646.449c-1.035-0.165-2.228-0.259-3.443-0.259-12.692 0-22.982 10.289-22.982 22.982s10.289 22.982 22.982 22.982c11.483 0 21-8.422 22.708-19.427l0.016-0.129c0.162-1.026 0.255-2.208 0.255-3.412 0-11.492-8.432-21.015-19.447-22.72l-0.129-0.016zM218.816 431.139c-9.391-7.574-21.469-12.157-34.618-12.157-2.134 0-4.24 0.121-6.311 0.356l0.254-0.023-2.392 0.261c-27.972 3.147-49.515 26.669-49.515 55.222 0 2.119 0.119 4.209 0.35 6.266l-0.023-0.252 6.111 55.997c3.006 26.698 24.551 47.52 51.319 49.382l0.174 0.010c1.065 0.23 2.289 0.361 3.544 0.361 0.659 0 1.309-0.036 1.949-0.107l-0.079 0.007 4.319-0.475 2.392-0.252-3.729-34.168-2.392 0.271c-0.691 0.080-1.491 0.126-2.302 0.126-10.89 0-19.86-8.223-21.039-18.799l-0.009-0.096-6.101-56.016c-0.079-0.688-0.125-1.486-0.125-2.294 0-10.883 8.212-19.848 18.778-21.037l0.096-0.009 2.382-0.252c0.715-0.087 1.543-0.137 2.383-0.137 4.955 0 9.506 1.727 13.085 4.613l-0.040-0.031c4.321 3.448 7.254 8.475 7.922 14.195l0.009 0.1 2.615 24.144c0.977 8.654 8.254 15.317 17.089 15.317 9.494 0 17.191-7.697 17.191-17.191 0-0.66-0.037-1.312-0.11-1.953l0.007 0.079-2.634-24.115c-1.71-15.163-9.281-28.289-20.359-37.252l-0.105-0.082zM408.006 756.777c12.747-7.098 22.245-18.733 26.397-32.672l0.1-0.392 0.668-2.305c1.409-4.656 2.22-10.007 2.22-15.548 0-25.133-16.694-46.367-39.598-53.219l-0.393-0.101-54.060-15.815c-4.66-1.41-10.016-2.222-15.561-2.222-21.702 0-40.5 12.436-49.655 30.571l-0.146 0.318c-0.954 1.391-1.736 2.998-2.262 4.717l-0.033 0.125-1.22 4.193-0.688 2.276 32.986 9.685 0.678-2.295c2.642-8.876 10.728-15.238 20.301-15.238 2.122 0 4.172 0.313 6.104 0.895l-0.15-0.039 54.079 15.825c8.871 2.649 15.226 10.734 15.226 20.305 0 2.121-0.312 4.169-0.893 6.1l0.039-0.15-0.668 2.286c-1.582 5.453-5.173 9.886-9.899 12.536l-0.105 0.054c-2.97 1.682-6.523 2.673-10.308 2.673-2.121 0-4.17-0.311-6.103-0.891l0.15 0.039-23.301-6.779c-1.359-0.386-2.92-0.609-4.532-0.609-9.489 0-17.181 7.692-17.181 17.181 0 7.677 5.036 14.178 11.984 16.381l0.122 0.033 23.243 6.779c4.663 1.412 10.022 2.225 15.571 2.225 9.816 0 19.039-2.544 27.043-7.008l-0.282 0.145zM206.032 658.816c2.082-0.232 0.3-0.523 6.44-1.637l2.905 34.952c-1.604 0.39-3.516 0.693-5.47 0.844l-0.128 0.008-2.712 0.281c-1.846 0.217-3.986 0.341-6.153 0.341-28.572 0-52.116-21.525-55.301-49.243l-0.024-0.257-2.547-23.020c-0.064-0.556-0.1-1.201-0.1-1.855 0-9.48 7.685-17.165 17.165-17.165 8.827 0 16.097 6.662 17.057 15.232l0.007 0.078 2.508 23.020c0.623 5.77 3.495 10.77 7.708 14.176l0.040 0.031c3.672 2.903 8.369 4.656 13.476 4.656 0.848 0 1.685-0.048 2.508-0.142l-0.101 0.009zM299.557 704.45c0.581-2.014 1.056-4.91 0.494-5.094l33.354 10.731c-0.125 1.47-0.434 2.828-0.907 4.108l0.035-0.108-0.523 1.85c-6.968 23.13-28.079 39.688-53.057 39.688-5.598 0-11.003-0.832-16.096-2.379l0.392 0.102-22.275-6.547c-7.211-2.162-12.375-8.739-12.375-16.522 0-9.509 7.708-17.217 17.217-17.217 1.726 0 3.392 0.254 4.964 0.726l-0.122-0.031 22.275 6.498c1.78 0.543 3.825 0.856 5.944 0.856 3.732 0 7.238-0.971 10.278-2.673l-0.106 0.055c4.83-2.533 8.437-6.844 9.987-12.042l0.036-0.142zM241.613 576.351l0.203 3.816c0.016 0.275 0.025 0.597 0.025 0.921 0 9.133-7.175 16.591-16.197 17.043l-0.040 0.002c-0.653 0.094-1.406 0.148-2.172 0.148-8.416 0-15.319-6.474-16.002-14.713l-0.004-0.058-0.823-12.048h0.165l-0.862-10.13c-0.639-6.080-3.55-11.379-7.855-15.113l-0.029-0.024c-3.642-3.064-8.384-4.925-13.561-4.925-0.657 0-1.308 0.030-1.95 0.089l0.083-0.006-2.363 0.058-3.7-34.274 0.068 1.859c1.529-0.18 3.3-0.283 5.095-0.283 13.079 0 24.884 5.45 33.27 14.202l0.016 0.016h0.068c9.423 9.791 21.151 20.193 22.817 35.475l3.312 18.934zM270.977 679.919l0.145 2.905c0.013 0.25 0.021 0.543 0.021 0.838 0 9.070-7.236 16.45-16.251 16.681h-0.021c-0.259 0.014-0.562 0.022-0.867 0.022-9.221 0-16.756-7.22-17.26-16.315l-0.002-0.045-0.765-13.714h0.174l-0.968-8.648c-0.657-5.859-3.59-10.928-7.881-14.378l-0.042-0.032c-3.544-2.871-8.109-4.609-13.079-4.609-0.834 0-1.657 0.049-2.466 0.144l0.098-0.009-2.382 0.232-3.709-34.168 3.332-1.191c2.762-0.533 5.938-0.839 9.186-0.839 12.383 0 23.731 4.437 32.538 11.808l-0.080-0.065 0.058 0.068c10.303 10.346 17.379 23.913 19.586 39.059l0.045 0.377 1.772 21.306z" />
<glyph unicode="&#xe91c;" glyph-name="ambulance" horiz-adv-x="1254" d="M600.402 764.689c-0.217 15.325-6.199 29.213-15.869 39.628l0.034-0.037c-9.732 9.793-23.209 15.855-38.102 15.855-0.52 0-1.038-0.007-1.555-0.022l0.076 0.002c-30.536-0.186-55.24-24.89-55.425-55.408v-52.8h110.841zM544.986 853.1c0.081-0.001 0.177-0.002 0.273-0.002 11.51 0 20.841 9.331 20.841 20.841 0 0.096-0.001 0.192-0.002 0.287v-0.014 64.665c0 11.66-9.452 21.113-21.113 21.113s-21.113-9.452-21.113-21.113v-64.655c-0.001-0.084-0.002-0.183-0.002-0.283 0-11.51 9.331-20.841 20.841-20.841 0.096 0 0.192 0.001 0.288 0.002h-0.014zM452.662 828.037c3.55-4.062 8.741-6.613 14.527-6.613s10.977 2.551 14.508 6.59l0.019 0.023c3.679 3.735 5.951 8.866 5.951 14.527s-2.272 10.792-5.954 14.53l-44.866 44.866c-3.718 3.718-8.854 6.017-14.527 6.017-11.346 0-20.544-9.198-20.544-20.544 0-5.673 2.3-10.809 6.017-14.527v0zM370.797 743.576h64.655c11.66 0 21.113 9.452 21.113 21.113s-9.452 21.113-21.113 21.113h-64.655c-11.66 0-21.113-9.452-21.113-21.113s9.452-21.113 21.113-21.113v0zM633.397 764.689c-0.001-0.081-0.002-0.177-0.002-0.273 0-11.51 9.331-20.841 20.841-20.841 0.096 0 0.192 0.001 0.287 0.002h64.641c11.66 0 21.113 9.452 21.113 21.113s-9.452 21.113-21.113 21.113h-64.655c-11.333-0.779-20.334-9.779-21.109-21.042l-0.004-0.070zM621.524 821.432c5.735 0.238 10.848 2.72 14.518 6.586l44.878 44.878c3.718 3.718 6.017 8.854 6.017 14.527 0 11.346-9.198 20.544-20.544 20.544-5.673 0-10.809-2.3-14.527-6.017v0l-44.859-44.927c-3.679-3.735-5.951-8.866-5.951-14.527s2.272-10.792 5.954-14.53l-0.003 0.003c3.684-3.851 8.793-6.313 14.477-6.536l0.040-0.001zM1186.306 354.31l-200.579 26.391-114.802 201.887c-31.289 53.054-88.050 88.15-153.029 88.411h-640.040c-42.965-0.083-77.773-34.89-77.855-77.847v-464.495c0.083-42.965 34.89-77.773 77.847-77.855h56.77c0 94.014 76.214 170.228 170.228 170.228s170.228-76.214 170.228-170.228v0h303.479c0 94.014 76.214 170.228 170.228 170.228s170.228-76.214 170.228-170.228v0h56.713c42.965 0.083 77.773 34.89 77.855 77.847v149.152c0 0.037 0 0.080 0 0.124 0 39.096-29.137 71.387-66.88 76.343l-0.39 0.042zM415.666 422.917c0.008-0.18 0.012-0.391 0.012-0.603 0-8.419-6.825-15.244-15.244-15.244-0.212 0-0.423 0.004-0.633 0.013l0.030-0.001h-68.616v-68.616c0.008-0.18 0.012-0.391 0.012-0.603 0-8.419-6.825-15.244-15.244-15.244-0.212 0-0.423 0.004-0.633 0.013l0.030-0.001h-55.425c-0.18-0.008-0.391-0.012-0.603-0.012-8.419 0-15.244 6.825-15.244 15.244 0 0.212 0.004 0.423 0.013 0.633l-0.001-0.030v68.616h-68.616c-0.18-0.008-0.391-0.012-0.603-0.012-8.419 0-15.244 6.825-15.244 15.244 0 0.212 0.004 0.423 0.013 0.633l-0.001-0.030v55.425c-0.008 0.18-0.012 0.391-0.012 0.603 0 8.419 6.825 15.244 15.244 15.244 0.212 0 0.423-0.004 0.633-0.013l-0.030 0.001h68.616v68.616c-0.008 0.18-0.012 0.391-0.012 0.603 0 8.419 6.825 15.244 15.244 15.244 0.212 0 0.423-0.004 0.633-0.013l-0.030 0.001h55.425c0.18 0.008 0.391 0.012 0.603 0.012 8.419 0 15.244-6.825 15.244-15.244 0-0.212-0.004-0.423-0.013-0.633l0.001 0.030v-68.616h68.616c0.18 0.008 0.391 0.012 0.603 0.012 8.419 0 15.244-6.825 15.244-15.244 0-0.212-0.004-0.423-0.013-0.633l0.001 0.030v-55.425zM843.206 387.287h-236.2c-0.172-0.014-0.371-0.022-0.573-0.022-3.809 0-6.945 2.882-7.346 6.585l-0.003 0.033-14.527 159.671c-0.004 0.097-0.007 0.212-0.007 0.327 0 4.199 3.404 7.602 7.602 7.602 0.115 0 0.229-0.003 0.343-0.008l-0.016 0.001h125.378c24.511-0.226 45.933-13.243 57.938-32.69l0.17-0.296 75.163-130.598c0.177-0.646 0.279-1.388 0.279-2.154 0-4.577-3.637-8.304-8.178-8.45h-0.013zM420.935 52.119c0-64.131-51.988-116.119-116.119-116.119s-116.119 51.988-116.119 116.119c0 64.131 51.988 116.119 116.119 116.119s116.119-51.988 116.119-116.119zM1064.898 52.119c0-64.131-51.988-116.119-116.119-116.119s-116.119 51.988-116.119 116.119c0 64.131 51.988 116.119 116.119 116.119s116.119-51.988 116.119-116.119z" />
<glyph unicode="&#xe91d;" glyph-name="rescue" horiz-adv-x="1305" d="M451.953-49.469l-41.585 67.645c-0.038 0.053-0.078 0.1-0.123 0.143v0h-0.061l-0.061 0.102s0 0 0.061 0h-0.061c0 0.051-0.061 0.072 0 0v0 0 0c0 0.051 0 0.072-0.061 0.072s0 0 0 0v0.102l-1.26 1.137 1.024-1.024c-1.535 1.452-2.918 3.033-4.142 4.735l-0.067 0.098c-2.381 3.814-3.792 8.447-3.792 13.409 0 10.428 6.235 19.4 15.181 23.391l0.163 0.065 66.744 35.246 2.816 9.216v86.692l-15.677 25.6c-2.489 3.878-3.967 8.611-3.967 13.689 0 10.267 6.043 19.122 14.767 23.202l0.157 0.066c1.316 0.672 2.88 1.308 4.501 1.815l0.22 0.059v238.234l-411.75 0.236c-0.784-0.042-1.703-0.066-2.627-0.066-27.902 0-50.716 21.788-52.355 49.278l-0.007 0.145v1.024c1.625 27.648 24.443 49.454 52.354 49.454 0.927 0 1.848-0.024 2.763-0.072l-0.128 0.005h205.967c8.644 2.922 14.814 10.824 15.124 20.209l0.001 0.036v56.207c-0.698 12.315-10.854 22.037-23.281 22.037-0.423 0-0.843-0.011-1.261-0.034l0.058 0.002h-83.845c22.062 18.375 46.574 36.62 72.055 53.52l3.127 1.95 108.646 18.893 99.164 89.088h248.934v-35.205l135.014-115.436h171.008l119.921 121.375h143.831l-67.277-99.656 83.139-74.67-120.945-108.626h-79.391l-88.443 79.411h-76.892l-252.641-129.106h-154.89v-266.639l11.653-18.954c0.118 0.001 0.257 0.002 0.397 0.002 3.232 0 6.371-0.397 9.372-1.144l-0.266 0.056 34.744-8.52c14.186-2.692 24.768-14.993 24.768-29.765 0-2.731-0.362-5.377-1.040-7.894l0.049 0.212-27.924-91.556c-4.998-13.32-17.626-22.627-32.428-22.627-3.3 0-6.491 0.463-9.513 1.326l-20.656 5.060-49.316-26.061 31.744-51.569c2.469-3.873 3.936-8.593 3.936-13.657 0-10.297-6.065-19.177-14.817-23.264l-0.158-0.066c-4.068-2.020-8.858-3.202-13.925-3.202-11.172 0-21.002 5.747-26.694 14.447l-0.075 0.122zM410.296 18.319c-1.311 2.314-1.229 2.048-0.143 0.174 0-0.051 0.061-0.102 0.123-0.174zM410.081 18.412h0.082s-0.072-0.020-0.092 0zM410.081 18.483v0s0 0 0.082-0.051zM410.143 18.483v0 0s-0.010-0.051-0.010-0.041zM410.143 18.483v0 0zM410.061 18.483l-0.061 0.072s0.031-0.051 0.072-0.113zM410.143 18.483c-0.082 0.164-0.061 0.123 0 0zM410.061 18.483v0c-0.009-0.003-0.020-0.005-0.031-0.005s-0.022 0.002-0.031 0.005h0.001zM409.825 18.729l0.061-0.072 0.154-0.143c-0.077 0.068-0.147 0.138-0.213 0.212l-0.002 0.003zM409.999 18.534h-0.061zM409.897 18.606v0 0zM409.897 18.606v0 0zM409.836 18.657v0 0zM409.836 18.657s-0.010-0.020-0.010 0zM409.836 18.657s0 0 0 0v0c-0.032 0.044-0.073 0.079-0.121 0.102l-0.002 0.001v-0.051l0.061-0.051c0.051 0.041 0.051 0.041 0.051-0.020zM409.836 18.657v0-0.051zM580.987 214.733c-18.939 3.583-33.070 20-33.070 39.718 0 3.649 0.484 7.184 1.391 10.546l-0.065-0.283c6.664 17.77 23.508 30.188 43.253 30.188 4.415 0 8.684-0.621 12.727-1.78l-0.325 0.080c18.939-3.583 33.070-20 33.070-39.718 0-3.649-0.484-7.184-1.391-10.546l0.065 0.283c-6.664-17.77-23.508-30.188-43.253-30.188-4.415 0-8.684 0.621-12.727 1.78l0.325-0.080zM486.779 532.398v173.67h-86.016c-0.357 0.020-0.774 0.031-1.195 0.031-12.413 0-22.56-9.699-23.276-21.932l-0.003-0.063v-129.751c0.72-12.296 10.867-21.994 23.279-21.994 0.413 0 0.823 0.011 1.231 0.032l-0.057-0.002zM631.849 554.363v129.741c-0.72 12.296-10.867 21.994-23.279 21.994-0.413 0-0.823-0.011-1.231-0.032l0.057 0.002h-75.295v-173.681h75.244c0.351-0.019 0.761-0.030 1.174-0.030 12.412 0 22.559 9.699 23.276 21.931l0.003 0.063zM1213.829 649.124c0 33.331-30.106 60.416-67.226 60.416s-67.226-27.044-67.226-60.416 30.106-60.416 67.226-60.416 67.164 27.075 67.164 60.406zM1119.826 649.124c0.785 13.459 11.891 24.077 25.477 24.077 0.457 0 0.912-0.012 1.363-0.036l-0.063 0.003c0.388 0.021 0.843 0.033 1.3 0.033 13.586 0 24.693-10.618 25.474-24.008l0.003-0.069c-0.785-13.459-11.891-24.077-25.477-24.077-0.457 0-0.912 0.012-1.363 0.036l0.063-0.003c-0.404-0.023-0.876-0.036-1.352-0.036-13.584 0-24.688 10.613-25.474 24l-0.003 0.069zM498.278 882.493v16.312h-474.798c-0.474-0.036-1.027-0.057-1.585-0.057-11.479 0-20.902 8.801-21.89 20.024l-0.006 0.083c0.993 11.306 10.417 20.107 21.896 20.107 0.558 0 1.111-0.021 1.658-0.062l-0.073 0.004h483.215c5.793 11.937 17.469 20.209 31.156 21.069l0.107 0.005h110.131c13.786-0.872 25.452-9.142 31.145-20.853l0.097-0.221h486.4c0.474 0.036 1.027 0.057 1.585 0.057 11.479 0 20.902-8.801 21.89-20.024l0.006-0.083c-0.993-11.306-10.417-20.107-21.896-20.107-0.558 0-1.111 0.021-1.658 0.062l0.073-0.004h-477.962v-16.312z" />
<glyph unicode="&#xe91e;" glyph-name="plus-man" horiz-adv-x="780" d="M187.010 91.258v30.207c0.047 39.458 32.021 71.431 71.474 71.478h28.975v28.991c0 39.5 32.004 71.525 71.495 71.561h61.818c39.458-0.047 71.431-32.021 71.478-71.474v-29.077h28.97c39.466-0.035 71.452-32.014 71.499-71.474v-30.211c107.908 3.379 187.010 23.345 187.010 141.082-0.019 133.776-102.089 243.707-232.599 256.182l-1.040 0.080c-1.030-46.917-70.572-84.789-156.205-84.789s-155.175 37.872-156.205 84.789c-131.568-12.535-233.659-122.474-233.68-256.261v-0.002c-0.021-117.736 79.081-137.702 187.010-141.082zM195.169 721.251c0.144-1.875 0.309-3.688 0.474-5.543 12.363-140.525 94.618-249.092 194.18-249.092s181.797 108.567 194.242 249.092l0.453 5.543c0.886 6.181 1.484 12.363 1.834 18.544 0.268 4.286 0.412 8.572 0.412 12.94 0 0.016 0 0.035 0 0.054 0 11.074-0.816 21.957-2.392 32.593l0.146-1.204c-10.511 99.13-93.673 175.69-194.716 175.69s-184.205-76.559-194.642-174.834l-0.074-0.855c-1.43-9.396-2.246-20.236-2.246-31.267 0-0.062 0-0.124 0-0.186v0.010c0-4.348 0.165-8.654 0.391-12.94 0.515-6.284 1.092-12.466 1.937-18.544zM268.378 833.012c35.579-16.514 77.015-27.075 120.66-29.248l0.785-0.031c44.472 2.193 85.951 12.755 123.64 30.136l-2.071-0.856c41.065-16.195 21.594-131.706 21.594-131.727 7.79 5.64 16.905 10.044 26.742 12.684l0.58 0.133c-11.291-122.743-83.264-217.381-170.402-217.381s-159.090 94.638-170.402 217.381c10.417-2.767 19.533-7.172 27.564-12.983l-0.242 0.166s-19.492 115.531 21.594 131.727zM544.463 121.485c0 12.802-10.378 23.18-23.18 23.18v0h-77.289v77.289c0 12.802-10.378 23.18-23.18 23.18v0h-61.815c-12.802 0-23.18-10.378-23.18-23.18v0-77.289h-77.309c-12.802 0-23.18-10.378-23.18-23.18v0-61.815c0-12.802 10.378-23.18 23.18-23.18v0h77.289v-77.289c0-12.802 10.378-23.18 23.18-23.18v0h61.815c12.802 0 23.18 10.378 23.18 23.18v0 77.268h77.289c12.802 0 23.18 10.378 23.18 23.18v0z" />
<glyph unicode="&#xe91f;" glyph-name="monitor" horiz-adv-x="1104" d="M1020.126 960h-931.031c-62.742 0-88.972-26.024-88.972-88.395q-0.288-328.421 0-656.636c0-61.815 25.282-87.468 86.54-87.468q175.018-0.288 350.283 0c-0.371-6.552-0.927-13.105-1.319-19.657-1.319-19.286-2.060-38.758-4.677-57.879-0.793-5.952-2.171-11.328-4.103-16.432l0.167 0.504c-5.983-17.463-17.614-31.689-32.672-40.834l-0.337-0.19c-5.996-3.75-11.992-7.315-17.988-11.044-10.488-6.367-21.161-12.548-31.464-19.101-4.843-2.841-8.725-6.849-11.337-11.649l-0.079-0.158c-3.565-7.686-0.185-13.29 8.427-14.794 1.26-0.090 2.731-0.141 4.214-0.141s2.953 0.051 4.41 0.152l-0.197-0.011q203.988 0 407.729 0c7.294 0 16.855-2.617 18.915 7.871 1.875 9.355-4.863 14.609-12.177 18.915-11.044 6.552-22.109 13.29-33.153 19.863-4.121 2.617-8.242 5.048-12.363 7.5-15.972 9.014-28.314 22.866-35.204 39.543l-0.195 0.534c-3.239 7.875-5.386 16.997-5.984 26.538l-0.012 0.248c-1.504 23.036-3.565 46.258-5.44 70.242h348.016c57.694 0 84.088 26.786 84.088 85.036v664.28q-0.288 83.161-84.088 83.161zM593.276 190.243c-8.019-14.834-23.457-24.741-41.21-24.741s-33.191 9.907-41.088 24.495l-0.122 0.247c-3.892 7.008-6.182 15.369-6.182 24.264 0 0.097 0 0.194 0.001 0.291v-0.015c-0.019 0.495-0.029 1.076-0.029 1.66 0 26.173 21.218 47.391 47.391 47.391s47.391-21.218 47.391-47.391c0-1.44-0.064-2.866-0.19-4.273l0.013 0.182c-0.245-8.141-2.429-15.721-6.104-22.362l0.128 0.253zM1013.615 303.735q-460.189 0.845-920.399 0.412c-31.835 0-32.782 1.113-32.782 33.339v523.817c0 37.274 0.371 37.46 38.758 37.46 110.813 0.185 720.861 0.185 872.575 0.185h37.851c32.391 0 33.895-1.319 33.895-32.597 0.185-177.202-0.185-354.156 0.556-531.152 0.206-22.81-6.429-31.464-30.516-31.464z" />
<glyph unicode="&#xe920;" glyph-name="plus-woman" horiz-adv-x="734" d="M733.99 219.235c-0.758 5.726-1.799 10.763-3.163 15.664l0.188-0.793c-10.83 42.769-30.662 79.924-57.459 110.883l0.286-0.338c-19.797 21.831-46.741 36.862-77.115 41.388l-0.712 0.087c-1.983 0.496-3.8 0.826-5.783 1.157-6.586 6.484-11.766 14.375-15.057 23.188l-0.144 0.441c-7.941 24.157-12.521 51.962-12.521 80.836 0 4.405 0.107 8.785 0.317 13.138l-0.024-0.614c0.165 18.672 1.322 37.013 2.644 53.868 22.726 6.797 39.106 27.273 39.656 51.657l0.001 0.063v43.127c-0.486 23.177-15.238 42.787-35.807 50.439l-0.38 0.124c-0.165 0.661-0.165 1.322-0.33 1.983-0.661 4.627-1.487 9.253-2.313 13.715-0.496 1.983-0.826 4.131-1.157 6.114-1.157 5.453-2.313 10.741-3.635 16.028v35.361c0 100.961-87.576 183.25-194.982 183.25s-194.982-82.124-194.982-183.25v-39.822c-0.826-3.8-1.818-7.601-2.644-11.567-0.33-1.983-0.826-4.131-1.157-6.114-0.826-4.461-1.652-9.088-2.313-13.715-0.165-0.661-0.165-1.322-0.33-1.983-20.918-7.778-35.627-27.403-36.021-50.515l-0.001-0.048v-43.127c0.55-24.398 16.847-44.847 39.101-51.617l0.391-0.102c1.487-16.854 2.644-35.361 2.809-53.868 0.189-3.759 0.297-8.163 0.297-12.592 0-28.851-4.581-56.632-13.057-82.655l0.531 1.886c-3.373-9.249-8.502-17.143-15.033-23.625l-0.004-0.004c-2.344-0.415-4.293-0.873-6.202-1.426l0.418 0.104c-31.17-4.495-58.2-19.552-77.892-41.362l-0.101-0.113c-26.511-30.621-46.343-67.775-56.771-108.687l-0.401-1.857c-1.992-6.617-3.139-14.222-3.139-22.094 0-13.101 3.176-25.459 8.8-36.348l-0.208 0.443c19.829-37.509 88.568-59.816 171.022-71.879v23.629c0.066 31.458 25.549 56.942 57.001 57.007h46.769v46.763c0.066 31.458 25.549 56.942 57.001 57.007h63.953c31.458-0.066 56.942-25.549 57.007-57.001v-46.769h46.763c31.458-0.066 56.942-25.549 57.007-57.001v-21.983c77.827 12.558 141.609 34.535 160.612 70.226 5.456 10.299 8.66 22.514 8.66 35.477 0 2.753-0.144 5.472-0.426 8.15l0.028-0.334zM366.664 921.83c0.37 0.003 0.807 0.005 1.245 0.005 52.163 0 98.393-25.397 127.002-64.5l0.309-0.443-0.165 0.165c-0.849 0.779-1.764 1.538-2.717 2.248l-0.092 0.065q-3.718 2.974-7.436 5.453c-0.33 0.33-0.826 0.661-1.157 0.991-2.809 1.983-5.783 3.8-8.758 5.618l-2.479 1.487c-2.148 1.157-4.131 2.313-6.114 3.305-0.991 0.496-2.148 1.157-3.14 1.652-1.818 0.826-3.635 1.818-5.618 2.644l-3.305 1.322c-1.454 0.676-3.313 1.404-5.218 2.034l-0.4 0.115-2.974 1.157c-2.148 0.826-4.296 1.487-6.444 2.148-0.527 0.225-1.139 0.399-1.778 0.491l-0.040 0.005c-2.644 0.826-5.288 1.487-7.931 2.148l-2.479 0.496c-1.818 0.33-3.47 0.826-5.288 1.157l-2.974 0.496c-1.222 0.266-2.745 0.499-4.293 0.648l-0.169 0.013c-0.991 0.165-1.983 0.33-2.809 0.496l-4.131 0.496c-0.954 0.032-1.863 0.15-2.741 0.349l0.097-0.018-4.131 0.33-1.983 0.165c-1.983 0.165-3.635 0.165-5.288 0.33h-4.792c-4.131 0-7.601-0.165-9.914-0.33h-0.826c-0.826 0-1.487-0.165-1.983-0.165h-1.322c-2.479 0.165-4.792 0.33-7.27 0.33s-4.792-0.165-7.27-0.33h-1.157c-0.496 0-1.157 0.165-1.983 0.165h-0.826c-2.479 0.165-5.783 0.33-9.914 0.33h-4.792c-1.652 0-3.47-0.165-5.453-0.165-0.496 0-1.157-0.165-1.818-0.165-1.607-0.031-3.151-0.15-4.669-0.353l0.208 0.023c-0.895-0.032-1.746-0.151-2.566-0.348l0.087 0.018c-1.487-0.165-2.809-0.33-4.461-0.496-0.787-0.191-1.696-0.311-2.63-0.33h-0.014c-1.652-0.33-3.14-0.496-4.792-0.826-0.826-0.165-1.652-0.33-2.644-0.496-1.818-0.33-3.8-0.826-5.783-1.157l-1.983-0.496c-2.644-0.661-5.288-1.322-8.097-2.148-0.496-0.165-0.826-0.33-1.322-0.496-2.313-0.661-4.627-1.487-6.94-2.313l-2.644-0.991c-1.983-0.826-3.8-1.487-5.783-2.313-0.991-0.496-1.983-0.826-2.974-1.322-1.983-0.826-3.8-1.818-5.783-2.644l-2.974-1.487c-2.148-1.157-4.296-2.313-6.444-3.635-0.661-0.496-1.487-0.826-2.148-1.322-2.974-1.818-5.949-3.635-8.923-5.618l-0.826-0.661c-2.644-1.818-5.288-3.8-7.766-5.783-0.826-0.661-1.652-1.487-2.644-2.148-0.986-0.707-1.85-1.467-2.635-2.304l-0.009-0.010c28.705 40.682 75.513 66.928 128.451 66.928 0.501 0 1.002-0.002 1.503-0.007l-0.077 0.001zM502.821 397.032c-0.837-5.997-3.321-11.301-6.975-15.574l0.035 0.041c-32.114-34.816-77.961-56.547-128.885-56.547-45.829 0-87.546 17.601-118.762 46.411l0.119-0.109c-3.635 3.305-6.94 6.775-10.245 10.245-3.525 4.278-5.989 9.556-6.916 15.348l-0.024 0.185c0.826 0.33 2.974 0.991 5.783 2.313 1.468 0.638 2.661 1.246 3.816 1.914l-0.18-0.096c15.356 6.765 26.093 21.432 27.094 38.71l0.006 0.121c15.818-16.26 34.766-29.381 55.884-38.404l1.124-0.427c12.72-5.408 27.515-8.551 43.045-8.551s30.325 3.143 43.784 8.829l-0.739-0.277c22.093 9.337 40.927 22.291 56.651 38.309l0.026 0.026 0.33-0.165c2.411-19.891 16.256-36.008 34.678-41.711l0.353-0.094c0-0.165 0-0.33 0-0.496zM520.832 566.897c-0.496-0.661-0.991-1.157-1.487-1.818-1.674-1.671-3.985-2.705-6.538-2.705-0.375 0-0.744 0.022-1.107 0.066l0.044-0.004c-1.489 0.305-2.782 1.005-3.803 1.985l0.003-0.003c-1.983-6.444-4.461-12.723-7.105-19.168-26.619-15.513-58.177-25.586-91.87-27.889l-0.664-0.036c-4.561 7.002-12.353 11.567-21.211 11.567-0.037 0-0.073 0-0.11 0h-33.703c-14.054 0-25.447-11.393-25.447-25.447s11.393-25.447 25.447-25.447v0h33.874c9.736 0.003 18.184 5.509 22.406 13.576l0.066 0.139c26.512 1.968 51.122 7.619 74.149 16.462l-1.774-0.599c-13.057-22.085-29.238-40.792-48.2-56.212l-0.38-0.3c-17.346-15.191-40.214-24.457-65.246-24.457-25.208 0-48.222 9.397-65.729 24.879l0.106-0.092c-34.447 29.221-60.307 67.577-73.905 111.334l-0.452 1.69c-1.019-0.978-2.311-1.678-3.751-1.974l-0.050-0.009c-0.218-0.016-0.472-0.025-0.728-0.025-3.283 0-6.221 1.48-8.182 3.809l-0.013 0.016c-0.981 1.085-1.905 2.272-2.739 3.524l-0.070 0.112v69.896c1.976-0.303 3.721-1.127 5.138-2.326l-0.015 0.013v0.496c0.826 8.262 11.732 100.135 80.636 93.69l210.514-108.231 12.393 11.897v-68.409zM531.573 127.693c-0.009 13.229-10.731 23.95-23.959 23.96h-79.811v79.81c-0.009 13.229-10.731 23.95-23.959 23.96h-63.948c-13.229-0.009-23.95-10.731-23.96-23.959v-79.811h-79.81c-13.229-0.009-23.95-10.731-23.96-23.959v-63.948c0.009-13.229 10.731-23.95 23.959-23.96h79.811v-79.81c0.009-13.229 10.731-23.95 23.959-23.96h63.948c13.229 0.009 23.95 10.731 23.96 23.959v79.811h79.81c13.229 0.009 23.95 10.731 23.96 23.959v0.001z" />
<glyph unicode="&#xe921;" glyph-name="call" horiz-adv-x="1022" d="M850.96 161.52l-131.459 103.436c-10.805 8.58-24.642 13.765-39.69 13.765-19.428 0-36.838-8.643-48.593-22.294l-0.070-0.084c-23.696-26.931-38.799-45.331-44.177-49.575-39.87-39.87-122.846 18.318-211.2 106.671s-145.47 170.237-105.6 210.17c4.306 4.306 22.665 20.481 49.575 44.177 13.735 11.826 22.378 29.236 22.378 48.664 0 15.048-5.185 28.885-13.867 39.822l0.101-0.132-103.436 131.459c-12.101 14.811-30.366 24.191-50.822 24.191-8.871 0-17.331-1.764-25.046-4.961l0.434 0.159c-44.318-24.491-82.532-52.743-116.581-85.314l0.205 0.195c-94.782-95.895 23.696-313.565 230.589-521.509s425.635-326.546 520.458-230.63c32.376 33.844 60.628 72.058 83.682 113.558l1.437 2.818c3.519 7.623 5.571 16.542 5.571 25.94 0 19.984-9.279 37.8-23.763 49.376l-0.126 0.097zM527.711 623.77c-3.077 0.794-6.61 1.251-10.25 1.251-23.545 0-42.631-19.087-42.631-42.631 0-0.984 0.033-1.96 0.099-2.927l-0.007 0.131c1.877-18.554 14.796-33.651 32.011-38.719l0.318-0.080c47.46-11.781 84.114-48.435 95.706-94.999l0.189-0.896c4.149-18.132 19.789-31.581 38.697-32.347l0.081-0.003c0.836-0.058 1.812-0.092 2.796-0.092 23.545 0 42.631 19.087 42.631 42.631 0 3.639-0.456 7.172-1.314 10.545l0.064-0.295c-8.95 40.001-28.693 74.469-55.993 101.263l-0.031 0.031c-27.265 27.504-62.008 47.553-100.926 56.847l-1.439 0.29zM812.182 399.651c0.831-0.058 1.801-0.090 2.779-0.090 23.59 0 42.714 19.124 42.714 42.714 0 1.309-0.059 2.603-0.174 3.882l0.012-0.165c-15.818 184.94-162.098 331.192-345.642 346.869l-1.406 0.097c-0.875 0.064-1.896 0.1-2.925 0.1-23.602 0-42.734-19.133-42.734-42.734 0-21.975 16.587-40.077 37.924-42.467l0.194-0.018c72.621-5.851 136.849-37.718 184.196-86.157l0.053-0.054c47.719-47.9 79.349-111.86 86.078-183.069l0.092-1.201c0.794-20.894 17.846-37.551 38.825-37.707h0.015zM863.9 800.477c-95.203 94.656-224.957 154.65-368.694 159.417l-0.895 0.024c-0.412 0.015-0.896 0.023-1.382 0.023-23.124 0-41.869-18.745-41.869-41.869 0-1.227 0.053-2.441 0.156-3.64l-0.011 0.156c1.67-21.662 19.157-38.743 40.845-39.764l0.096-0.004c242.287-9.396 436.243-203.711 445.041-445.272l0.024-0.823c0.641-21.979 17.995-39.705 39.759-40.937l0.111-0.005c1.044-0.093 2.258-0.145 3.484-0.145 23.124 0 41.869 18.745 41.869 41.869 0 0.486-0.008 0.97-0.025 1.452l0.002-0.070c-3.866 144.637-63.695 274.589-158.522 369.598l0.009-0.009z" />
<glyph unicode="&#xe922;" glyph-name="diver" d="M544.828 611.836l69.629-102.398h40.918c0.655-0.013 1.428-0.020 2.202-0.020 66.656 0 120.692 54.036 120.692 120.692 0 0.774-0.007 1.547-0.022 2.318l0.002-0.116v20.459c-0.978 78.783-64.584 142.39-143.275 143.367l-0.093 0.001h-409.593c-78.783-0.978-142.39-64.584-143.367-143.275l-0.001-0.093v-20.459c-0.013-0.655-0.020-1.428-0.020-2.202 0-66.656 54.036-120.692 120.692-120.692 0.774 0 1.547 0.007 2.318 0.022l-0.116-0.002h40.918l73.721 102.398c53.313 86.014 167.987 86.014 225.392 0zM311.304 460.284l73.721 102.398c9.406 16.623 26.968 27.66 47.107 27.66s37.702-11.037 46.968-27.392l0.14-0.268 73.721-102.398c14.639-19.962 38.006-32.777 64.365-32.777 0.412 0 0.824 0.003 1.234 0.009l-0.062-0.001h40.918c0.585-0.006 1.277-0.010 1.97-0.010 112.051 0 202.887 90.836 202.887 202.887 0 0.675-0.003 1.349-0.010 2.022l0.001-0.103v20.459c-1.108 123.979-101.312 224.189-225.183 225.306l-0.107 0.001h-409.593c-0.37 0.002-0.808 0.003-1.246 0.003-124.994 0-226.512-100.514-228.134-225.123l-0.002-0.153v-20.459c-0.006-0.58-0.009-1.266-0.009-1.953 0-112.051 90.836-202.887 202.887-202.887 0.675 0 1.349 0.003 2.022 0.010l-0.103-0.001h40.918c26.377 1.515 49.599 13.868 65.477 32.633l0.112 0.136zM245.766 468.468h-40.918c-90.38 0.271-163.574 73.465-163.844 163.818v20.485c-0.001 0.233-0.002 0.509-0.002 0.786 0 101.374 82.18 183.553 183.553 183.553 0.252 0 0.505-0.001 0.757-0.002h409.571c0.228 0.001 0.498 0.002 0.769 0.002 101.374 0 183.553-82.18 183.553-183.553 0-0.264-0.001-0.528-0.002-0.792v0.041-20.459c-0.271-90.38-73.465-163.574-163.818-163.844h-40.944c-12.836 2.18-24.038 8.025-32.791 16.406l0.023-0.021-73.772 102.381c-16.258 27.743-45.926 46.079-79.876 46.079s-63.618-18.335-79.641-45.644l-0.236-0.434-73.653-102.398c-6.761-8.973-16.926-15.070-28.54-16.367l-0.188-0.017zM901.125 960v-696.312c0-113.106-91.691-204.797-204.797-204.797s-204.797 91.691-204.797 204.797v0h81.837v122.875h-286.65v-122.875h81.837c1.34-179.958 147.534-325.325 327.68-325.325s326.34 145.367 327.679 325.197l0.001 0.127v696.312zM982.962 755.203h-40.918v163.878h40.918z" />
<glyph unicode="&#xe923;" glyph-name="policeman" horiz-adv-x="1448" d="M206.157 153.985c83.8-247.521 517.843-216.819 517.843-216.819s434.043-30.678 517.867 216.819c-119.215 67.64-308.878 112.003-517.867 112.003s-398.581-44.363-517.843-112.003zM1249.101 735.66c-95.986 10.115-251.948 16.874-375.566 130.044s-149.489 92.82-149.489 92.82-26.18 20.254-149.774-92.82-279.889-119.929-375.851-130.044-89.417-50.67-113.598-163.816-105.887-143.539-79.73-170.575c18.159-18.731 101.888-90.226 151.535-132.305 127.354 79.921 332.226 133.090 567.442 133.090s440.040-53.146 567.419-133.066c49.528 42.079 133.066 113.527 151.202 132.281 26.18 27.013-55.716 57.453-79.873 170.575s-17.755 153.654-113.717 163.816zM843.476 463.815l-119.429 89.631-119.524-90.321 45.625 147.418-119.405 91.749h147.561l45.625 145.752 45.625-145.752h147.561l-119.429-91.845zM1246.888 264.323c-119.001 69.163-310.901 114.812-522.841 114.812s-403.888-45.649-522.841-114.812v-71.948c126.45 67.902 312.258 111.861 522.841 111.861s396.367-43.864 522.841-111.861z" />
<glyph unicode="&#xe924;" glyph-name="fireman" d="M554.702 106.655c0-23.565-19.103-42.668-42.668-42.668s-42.668 19.103-42.668 42.668c0 23.565 19.103 42.668 42.668 42.668s42.668-19.103 42.668-42.668zM1015.456 230.388l-85.285 64.011c-3.516 2.649-7.957 4.243-12.771 4.243-7.365 0-13.859-3.731-17.695-9.405l-0.048-0.075-30.158-45.245-46.906 35.175c6.959 21.232 13.668 47.876 18.724 75.101l0.635 4.116c118.969 31.971 182.098 77.64 182.098 132.361 0 50.127-54.246 89.71-136.277 118.155-29.838 114.765-115.761 204.323-226.023 238.753l-2.387 0.642c-13.206 63.112-87.252 111.883-147.38 111.883s-134.090-48.771-147.296-111.883c-112.642-35.077-198.559-124.634-227.875-237.052l-0.519-2.344c-82.014-28.445-136.26-68.028-136.26-118.155 0-54.721 63.129-100.406 182.081-132.361 5.7-31.345 12.421-57.993 20.69-83.951l-1.297 4.717-46.906-35.158-30.174 45.245c-3.884 5.75-10.378 9.481-17.743 9.481-4.814 0-9.255-1.594-12.825-4.282l0.054 0.039-85.404-64.011c-5.192-3.926-8.512-10.090-8.512-17.029 0-4.393 1.33-8.475 3.61-11.865l-0.048 0.076 170.672-255.975c3.223-4.784 8.229-8.156 14.044-9.17l0.127-0.018c1.059-0.194 2.278-0.305 3.522-0.305 0.019 0 0.038 0 0.057 0h-0.003c0.003 0 0.007 0 0.011 0 4.823 0 9.272 1.605 12.84 4.31l-0.053-0.038 85.336 63.994c5.192 3.926 8.512 10.090 8.512 17.029 0 4.393-1.33 8.475-3.61 11.865l0.048-0.076-31.446 47.109 35.43 26.581c13.915-13.973 29.23-26.532 45.724-37.453l1.080-0.672c17.683-76.635 85.335-132.903 166.129-132.903s148.446 56.269 165.906 131.756l0.224 1.148c17.601 11.609 32.939 24.19 46.861 38.181l0.012 0.012 35.43-26.581-31.446-47.211c-2.231-3.314-3.562-7.396-3.562-11.789 0-6.94 3.32-13.104 8.458-16.991l0.053-0.039 85.336-63.994c3.516-2.667 7.964-4.272 12.787-4.272 0.004 0 0.008 0 0.012 0h-0.001c0.016 0 0.034 0 0.053 0 1.245 0 2.464 0.111 3.648 0.324l-0.124-0.019c5.944 1.030 10.95 4.402 14.124 9.112l0.048 0.076 170.74 255.924c2.227 3.312 3.554 7.39 3.554 11.778 0 6.996-3.374 13.204-8.583 17.085l-0.056 0.040zM475.689 807.11c5.939 2.269 10.88 4.589 15.627 7.217l-0.625-0.317v39.295c0 0.004 0 0.008 0 0.012 0 11.787 9.555 21.343 21.343 21.343 4.218 0 8.15-1.224 11.461-3.335l-0.086 0.051c7.544-4.764 73.961-48.144 73.961-103.407-0.663-22.935-14.714-42.432-34.583-51.001l-0.372-0.143c-16.655-8.15-36.243-12.916-56.944-12.916-0.708 0-1.415 0.006-2.121 0.017l0.107-0.001c-45.923 0-76.758 20.020-76.758 49.839 0 33.226 30.666 45.838 48.991 53.348zM511.983 21.319c-47.13 0-85.336 38.206-85.336 85.336s38.206 85.336 85.336 85.336c47.13 0 85.336-38.206 85.336-85.336v0c-0.058-47.107-38.23-85.278-85.331-85.336h-0.005zM680.875 124.235c-8.733 86.309-81.012 153.107-168.892 153.107s-160.16-66.798-168.834-152.391l-0.059-0.716c-112.425 98.321-127.547 289.336-129.496 335.106 63.129 48.432 165.96 73.978 298.354 73.978s235.259-25.547 298.354-73.978c-1.763-45.736-16.732-236.649-129.377-335.106zM356.449 432.913c3.858 3.86 6.243 9.191 6.243 15.079 0 11.781-9.55 21.331-21.331 21.331-5.892 0-11.227-2.389-15.087-6.252l-42.668-42.668c-3.861-3.861-6.249-9.195-6.249-15.087 0-11.784 9.553-21.337 21.337-21.337 5.892 0 11.226 2.388 15.087 6.249v0zM390.285 420.419l-85.336-85.336c-3.861-3.861-6.249-9.195-6.249-15.087 0-11.784 9.553-21.337 21.337-21.337 5.892 0 11.226 2.388 15.087 6.249v0l85.336 85.336c3.861 3.861 6.249 9.195 6.249 15.087 0 11.784-9.553 21.337-21.337 21.337-5.892 0-11.226-2.388-15.087-6.249v0z" />
<glyph unicode="&#xe925;" glyph-name="pencil" d="M864 960c88.364 0 160-71.634 160-160 0-36.020-11.91-69.258-32-96l-64-64-224 224 64 64c26.742 20.090 59.978 32 96 32zM64 224l-64-288 288 64 592 592-224 224-592-592zM715.578 596.422l-448-448-55.156 55.156 448 448 55.156-55.156z" />
<glyph unicode="&#xe926;" glyph-name="book" d="M896 832v-832h-672c-53.026 0-96 42.98-96 96s42.974 96 96 96h608v768h-640c-70.398 0-128-57.6-128-128v-768c0-70.4 57.602-128 128-128h768v896h-64zM224.056 128v0c-0.018-0.002-0.038 0-0.056 0-17.672 0-32-14.326-32-32s14.328-32 32-32c0.018 0 0.038 0.002 0.056 0.002v-0.002h607.89v64h-607.89z" />
<glyph unicode="&#xe927;" glyph-name="calendar" horiz-adv-x="951" d="M929.215 792.002c-12.813 13.378-30.82 21.693-50.769 21.693-0.23 0-0.461-0.001-0.691-0.003h-73.159v54.875c0.006 0.373 0.009 0.813 0.009 1.254 0 24.846-10.29 47.289-26.841 63.299l-0.024 0.023c-16.034 16.575-38.477 26.865-63.323 26.865-0.448 0-0.895-0.003-1.341-0.010l0.067 0.001h-36.557c-0.375 0.006-0.818 0.009-1.262 0.009-24.844 0-47.284-10.29-63.291-26.841l-0.024-0.024c-16.575-16.028-26.865-38.465-26.865-63.306 0-0.447 0.003-0.893 0.010-1.338l-0.001 0.067v-54.856h-219.423v54.856c0.006 0.375 0.009 0.818 0.009 1.262 0 24.844-10.29 47.284-26.841 63.291l-0.024 0.024c-16.028 16.575-38.465 26.865-63.306 26.865-0.447 0-0.893-0.003-1.338-0.010l0.067 0.001h-36.557c-0.375 0.006-0.818 0.009-1.262 0.009-24.844 0-47.284-10.29-63.291-26.841l-0.024-0.024c-16.575-16.031-26.865-38.471-26.865-63.315 0-0.444 0.003-0.887 0.010-1.329l-0.001 0.067v-54.856h-73.134c-0.19 0.002-0.414 0.003-0.639 0.003-19.954 0-37.967-8.314-50.762-21.668l-0.024-0.025c-13.378-12.819-21.693-30.832-21.693-50.786 0-0.225 0.001-0.449 0.003-0.673v0.034-731.462c0.569-40.167 32.986-72.576 73.101-73.134l0.053-0.001h804.498c40.185 0.536 72.624 32.954 73.193 73.080l0.001 0.054v731.423c0.002 0.193 0.003 0.421 0.003 0.65 0 19.957-8.314 37.972-21.668 50.771l-0.025 0.024zM237.8 9.194h-164.626v164.528h164.567zM237.8 210.318h-164.626v182.826h164.567zM237.8 429.761h-164.626v164.528h164.567zM224.885 691.144c-3.345 3.201-5.423 7.701-5.423 12.686 0 0.060 0 0.12 0.001 0.179v-0.009 164.567c0.142 10.037 8.241 18.136 18.265 18.279h36.591c10.037-0.142 18.136-8.241 18.279-18.265v-164.581c-0.142-10.037-8.241-18.136-18.265-18.279h-36.591c-0.051-0.001-0.11-0.001-0.17-0.001-4.985 0-9.485 2.079-12.68 5.417l-0.006 0.006zM457.164 9.154h-182.866v164.567h182.866v-164.567zM457.164 210.279h-182.866v182.866h182.866v-182.846zM457.164 429.721h-182.866v164.567h182.866v-164.567zM676.587 9.154h-182.846v164.567h182.866zM676.587 210.279h-182.846v182.866h182.866zM676.587 429.721h-182.846v164.567h182.866zM663.731 691.144c-3.345 3.204-5.423 7.706-5.423 12.694 0 0.057 0 0.114 0.001 0.17v-0.009 164.567c0.132 10.042 8.237 18.147 18.266 18.279h36.57c10.042-0.132 18.147-8.237 18.279-18.266v-164.58c-0.132-10.042-8.237-18.147-18.266-18.279h-36.57c-0.051-0.001-0.11-0.001-0.17-0.001-4.985 0-9.485 2.079-12.68 5.417l-0.006 0.006zM877.711 9.154h-164.567v164.567h164.567zM877.711 210.279h-164.567v182.866h164.567zM877.711 429.721h-164.567v164.567h164.567z" />
<glyph unicode="&#xe928;" glyph-name="liststyle" d="M42.667 960h938.837c23.564 0 42.667-19.103 42.667-42.667v-384c0-23.564-19.103-42.667-42.667-42.667h-938.837c-23.564 0-42.667 19.103-42.667 42.667v384c0 23.564 19.103 42.667 42.667 42.667zM42.667 405.333h938.837c23.564 0 42.667-19.103 42.667-42.667v-384c0-23.564-19.103-42.667-42.667-42.667h-938.837c-23.564 0-42.667 19.103-42.667 42.667v384c0 23.564 19.103 42.667 42.667 42.667z" />
<glyph unicode="&#xe929;" glyph-name="thumnail" d="M42.667 960h384c23.564 0 42.667-19.103 42.667-42.667v-384c0-23.564-19.103-42.667-42.667-42.667h-384c-23.564 0-42.667 19.103-42.667 42.667v384c0 23.564 19.103 42.667 42.667 42.667zM597.333 960h384c23.564 0 42.667-19.103 42.667-42.667v-384c0-23.564-19.103-42.667-42.667-42.667h-384c-23.564 0-42.667 19.103-42.667 42.667v384c0 23.564 19.103 42.667 42.667 42.667zM42.667 405.333h384c23.564 0 42.667-19.103 42.667-42.667v-384c0-23.564-19.103-42.667-42.667-42.667h-384c-23.564 0-42.667 19.103-42.667 42.667v384c0 23.564 19.103 42.667 42.667 42.667zM597.333 405.333h384c23.564 0 42.667-19.103 42.667-42.667v-384c0-23.564-19.103-42.667-42.667-42.667h-384c-23.564 0-42.667 19.103-42.667 42.667v384c0 23.564 19.103 42.667 42.667 42.667z" />
<glyph unicode="&#xe92a;" glyph-name="clock" d="M512-64c-282.77 0-512 229.23-512 512s229.23 512 512 512c282.77 0 512-229.23 512-512v0c-0.146-282.711-229.289-511.854-511.987-512h-0.013zM512 895.187c-246.974 0-447.187-200.212-447.187-447.187s200.212-447.187 447.187-447.187c246.974 0 447.187 200.212 447.187 447.187v0c-0.504 246.771-200.415 446.683-447.138 447.187h-0.049zM766.048 297.748l-267.022 120.458c-11.518 5.215-19.395 16.589-19.442 29.808v307.194h64.813v-286.464l248.862-112.768z" />
<glyph unicode="&#xe930;" glyph-name="folder-open" d="M832 0l192 512h-832l-192-512zM128 576l-128-576v832h288l128-128h416v-128z" />
<glyph unicode="&#xe935;" glyph-name="price-tag" d="M976 960h-384c-26.4 0-63.274-15.274-81.942-33.942l-476.116-476.116c-18.668-18.668-18.668-49.214 0-67.882l412.118-412.118c18.668-18.668 49.214-18.668 67.882 0l476.118 476.118c18.666 18.666 33.94 55.54 33.94 81.94v384c0 26.4-21.6 48-48 48zM736 576c-53.020 0-96 42.98-96 96s42.98 96 96 96 96-42.98 96-96-42.98-96-96-96z" />
<glyph unicode="&#xe936;" glyph-name="price-tags" horiz-adv-x="1280" d="M1232 960h-384c-26.4 0-63.274-15.274-81.942-33.942l-476.116-476.116c-18.668-18.668-18.668-49.214 0-67.882l412.118-412.118c18.668-18.668 49.214-18.668 67.882 0l476.118 476.118c18.666 18.666 33.94 55.54 33.94 81.94v384c0 26.4-21.6 48-48 48zM992 576c-53.020 0-96 42.98-96 96s42.98 96 96 96 96-42.98 96-96-42.98-96-96-96zM128 416l544 544h-80c-26.4 0-63.274-15.274-81.942-33.942l-476.116-476.116c-18.668-18.668-18.668-49.214 0-67.882l412.118-412.118c18.668-18.668 49.214-18.668 67.882 0l30.058 30.058-416 416z" />
<glyph unicode="&#xe95c;" glyph-name="drawer" d="M1016.988 307.99l-256 320c-6.074 7.592-15.266 12.010-24.988 12.010h-448c-9.72 0-18.916-4.418-24.988-12.010l-256-320c-4.538-5.674-7.012-12.724-7.012-19.99v-288c0-35.346 28.654-64 64-64h896c35.348 0 64 28.654 64 64v288c0 7.266-2.472 14.316-7.012 19.99zM960 256h-224l-128-128h-192l-128 128h-224v20.776l239.38 299.224h417.24l239.38-299.224v-20.776zM736 448h-448c-17.672 0-32 14.328-32 32s14.328 32 32 32h448c17.674 0 32-14.328 32-32s-14.326-32-32-32zM800 320h-576c-17.672 0-32 14.326-32 32s14.328 32 32 32h576c17.674 0 32-14.326 32-32s-14.326-32-32-32z" />
<glyph unicode="&#xe971;" glyph-name="user" d="M576 253.388v52.78c70.498 39.728 128 138.772 128 237.832 0 159.058 0 288-192 288s-192-128.942-192-288c0-99.060 57.502-198.104 128-237.832v-52.78c-217.102-17.748-384-124.42-384-253.388h896c0 128.968-166.898 235.64-384 253.388z" />
<glyph unicode="&#xe98f;" glyph-name="lock" d="M592 512h-16v192c0 105.87-86.13 192-192 192h-128c-105.87 0-192-86.13-192-192v-192h-16c-26.4 0-48-21.6-48-48v-480c0-26.4 21.6-48 48-48h544c26.4 0 48 21.6 48 48v480c0 26.4-21.6 48-48 48zM192 704c0 35.29 28.71 64 64 64h128c35.29 0 64-28.71 64-64v-192h-256v192z" />
<glyph unicode="&#xe990;" glyph-name="unlocked" d="M768 896c105.87 0 192-86.13 192-192v-192h-128v192c0 35.29-28.71 64-64 64h-128c-35.29 0-64-28.71-64-64v-192h16c26.4 0 48-21.6 48-48v-480c0-26.4-21.6-48-48-48h-544c-26.4 0-48 21.6-48 48v480c0 26.4 21.6 48 48 48h400v192c0 105.87 86.13 192 192 192h128z" />
<glyph unicode="&#xe994;" glyph-name="cog" d="M933.79 349.75c-53.726 93.054-21.416 212.304 72.152 266.488l-100.626 174.292c-28.75-16.854-62.176-26.518-97.846-26.518-107.536 0-194.708 87.746-194.708 195.99h-201.258c0.266-33.41-8.074-67.282-25.958-98.252-53.724-93.056-173.156-124.702-266.862-70.758l-100.624-174.292c28.97-16.472 54.050-40.588 71.886-71.478 53.638-92.908 21.512-211.92-71.708-266.224l100.626-174.292c28.65 16.696 61.916 26.254 97.4 26.254 107.196 0 194.144-87.192 194.7-194.958h201.254c-0.086 33.074 8.272 66.57 25.966 97.218 53.636 92.906 172.776 124.594 266.414 71.012l100.626 174.29c-28.78 16.466-53.692 40.498-71.434 71.228zM512 240.668c-114.508 0-207.336 92.824-207.336 207.334 0 114.508 92.826 207.334 207.336 207.334 114.508 0 207.332-92.826 207.332-207.334-0.002-114.51-92.824-207.334-207.332-207.334z" />
<glyph unicode="&#xe995;" glyph-name="cogs" d="M363.722 237.948l41.298 57.816-45.254 45.256-57.818-41.296c-10.722 5.994-22.204 10.774-34.266 14.192l-11.682 70.084h-64l-11.68-70.086c-12.062-3.418-23.544-8.198-34.266-14.192l-57.818 41.298-45.256-45.256 41.298-57.816c-5.994-10.72-10.774-22.206-14.192-34.266l-70.086-11.682v-64l70.086-11.682c3.418-12.060 8.198-23.544 14.192-34.266l-41.298-57.816 45.254-45.256 57.818 41.296c10.722-5.994 22.204-10.774 34.266-14.192l11.682-70.084h64l11.68 70.086c12.062 3.418 23.544 8.198 34.266 14.192l57.818-41.296 45.254 45.256-41.298 57.816c5.994 10.72 10.774 22.206 14.192 34.266l70.088 11.68v64l-70.086 11.682c-3.418 12.060-8.198 23.544-14.192 34.266zM224 96c-35.348 0-64 28.654-64 64s28.652 64 64 64 64-28.654 64-64-28.652-64-64-64zM1024 576v64l-67.382 12.25c-1.242 8.046-2.832 15.978-4.724 23.79l57.558 37.1-24.492 59.128-66.944-14.468c-4.214 6.91-8.726 13.62-13.492 20.13l39.006 56.342-45.256 45.254-56.342-39.006c-6.512 4.766-13.22 9.276-20.13 13.494l14.468 66.944-59.128 24.494-37.1-57.558c-7.812 1.892-15.744 3.482-23.79 4.724l-12.252 67.382h-64l-12.252-67.382c-8.046-1.242-15.976-2.832-23.79-4.724l-37.098 57.558-59.128-24.492 14.468-66.944c-6.91-4.216-13.62-8.728-20.13-13.494l-56.342 39.006-45.254-45.254 39.006-56.342c-4.766-6.51-9.278-13.22-13.494-20.13l-66.944 14.468-24.492-59.128 57.558-37.1c-1.892-7.812-3.482-15.742-4.724-23.79l-67.384-12.252v-64l67.382-12.25c1.242-8.046 2.832-15.978 4.724-23.79l-57.558-37.1 24.492-59.128 66.944 14.468c4.216-6.91 8.728-13.618 13.494-20.13l-39.006-56.342 45.254-45.256 56.342 39.006c6.51-4.766 13.22-9.276 20.13-13.492l-14.468-66.944 59.128-24.492 37.102 57.558c7.81-1.892 15.742-3.482 23.788-4.724l12.252-67.384h64l12.252 67.382c8.044 1.242 15.976 2.832 23.79 4.724l37.1-57.558 59.128 24.492-14.468 66.944c6.91 4.216 13.62 8.726 20.13 13.492l56.342-39.006 45.256 45.256-39.006 56.342c4.766 6.512 9.276 13.22 13.492 20.13l66.944-14.468 24.492 59.13-57.558 37.1c1.892 7.812 3.482 15.742 4.724 23.79l67.382 12.25zM672 468.8c-76.878 0-139.2 62.322-139.2 139.2s62.32 139.2 139.2 139.2 139.2-62.322 139.2-139.2c0-76.878-62.32-139.2-139.2-139.2z" />
<glyph unicode="&#xe9b8;" glyph-name="clipboard" d="M928 832h-288c0 70.692-57.306 128-128 128-70.692 0-128-57.308-128-128h-288c-17.672 0-32-14.328-32-32v-832c0-17.674 14.328-32 32-32h832c17.674 0 32 14.326 32 32v832c0 17.672-14.326 32-32 32zM512 896c35.346 0 64-28.654 64-64s-28.654-64-64-64c-35.346 0-64 28.654-64 64s28.654 64 64 64zM896 0h-768v768h128v-96c0-17.672 14.328-32 32-32h448c17.674 0 32 14.328 32 32v96h128v-768zM448 101.49l-205.254 237.254 58.508 58.51 146.746-114.744 274.742 242.744 58.514-58.508z" />
<glyph unicode="&#xe9bd;" glyph-name="menu" d="M64 768h896v-192h-896zM64 512h896v-192h-896zM64 256h896v-192h-896z" />
<glyph unicode="&#xea1e;" glyph-name="stop2" d="M128 832h768v-768h-768z" />
</font>
</defs>
</svg>
